<?xml version="1.0" encoding="utf-8"?>
<!-- Generator: Adobe Illustrator 26.1.0, SVG Export Plug-In . SVG Version: 6.00 Build 0)  -->
<svg version="1.1" id="Layer_1" xmlns="http://www.w3.org/2000/svg" xmlns:xlink="http://www.w3.org/1999/xlink" x="0px" y="0px"
	 viewBox="0 0 420 226.1" style="enable-background:new 0 0 420 226.1;" xml:space="preserve">
<style type="text/css">
	.st0{fill:#0062AE;}
	.st1{fill:#FFFFFF;}
	.st2{fill:#FFED00;}
	.st3{fill:#F7A600;}
	.st4{fill:#EC6608;}
</style>
<g>
	<path class="st0" d="M9.6,226.1h400.8c5.3,0,9.6-4.3,9.6-9.6V9.6c0-5.3-4.3-9.6-9.6-9.6H9.6C4.3,0,0,4.3,0,9.6v206.9
		C0,221.8,4.3,226.1,9.6,226.1z"/>
	<g>
		<path class="st1" d="M241.6,156c-3.2,1.3-6.3,2-9.6,2c-5.1,0-9.6-0.9-13.7-2.6c-4.1-1.8-7.5-4.2-10.2-7.3
			c-2.8-3.1-4.9-6.7-6.4-10.9s-2.2-8.7-2.2-13.5c0-4.9,0.7-9.5,2.2-13.8c1.5-4.2,3.6-7.9,6.4-11.1c2.8-3.2,6.2-5.6,10.2-7.4
			c4-1.8,8.6-2.7,13.7-2.7c3.4,0,6.7,0.5,9.9,1.5c3.2,1,6.1,2.5,8.6,4.5c2.6,2,4.7,4.4,6.4,7.3c1.7,2.9,2.7,6.2,3.1,10h-13.9
			c-0.9-3.7-2.5-6.5-5-8.3c-2.5-1.9-5.5-2.8-9-2.8c-3.3,0-6.1,0.6-8.3,1.9c-2.3,1.3-4.1,3-5.6,5.1c-1.4,2.1-2.5,4.6-3.1,7.3
			c-0.6,2.7-1,5.5-1,8.4c0,2.8,0.3,5.5,1,8.1c0.6,2.6,1.7,5,3.1,7.1c1.4,2.1,3.3,3.8,5.6,5.1c2.3,1.3,5.1,1.9,8.3,1.9
			c4.8,0,8.5-1.2,11.2-3.7c2.6-2.4,4.2-6,4.6-10.6h-14.7v-10.9H261v35.8h-9.3l-1.5-7.5C247.7,152.3,244.8,154.6,241.6,156z"/>
		<path class="st1" d="M301.4,90.2c4.3,0,8.2,0.7,11.9,2c3.7,1.4,6.9,3.4,9.6,6.1c2.7,2.7,4.8,6.1,6.3,10.2
			c1.5,4.1,2.3,8.9,2.3,14.4c0,4.8-0.6,9.3-1.9,13.4c-1.2,4.1-3.1,7.6-5.6,10.6c-2.5,3-5.6,5.3-9.4,7c-3.7,1.7-8.1,2.5-13.2,2.5
			h-28.6V90.2H301.4z M300.3,144.2c2.1,0,4.1-0.3,6.1-1c2-0.7,3.7-1.8,5.3-3.4c1.5-1.6,2.8-3.6,3.7-6.2c0.9-2.5,1.4-5.6,1.4-9.3
			c0-3.3-0.3-6.4-1-9c-0.7-2.7-1.7-5-3.2-6.9c-1.5-1.9-3.4-3.4-5.9-4.4c-2.4-1-5.5-1.5-9-1.5h-10.4v41.7H300.3z"/>
		<path class="st1" d="M388.1,90.2v12.2h-32v15.3h27.7v11.3h-27.7v27.4h-14.6V90.2H388.1z"/>
	</g>
	<g>
		<g>
			<g>
				<path class="st1" d="M136.9,194.1c-2.2,0-10-0.4-16-5.9c-4.5-4.1-6.1-10.1-6.3-17.8c-0.2-7.2,2.2-13.4,7.2-18.5l0,0
					c9-9.2,23.6-11.7,25.3-11.7l0.1,0c0.3,0,0.6,0,0.9,0l0.6,0v2.1l-0.6,0c-0.3,0-0.6,0-0.8,0l-0.1,0c-1.5,0-15.3,2.3-23.8,11.1
					c-4.6,4.7-6.8,10.4-6.6,17c0.2,7.1,1.6,12.6,5.6,16.3c6.3,5.8,15.1,5.3,15.2,5.3l250.8,0v2.1l-250.7,0
					C137.5,194.1,137.3,194.1,136.9,194.1z"/>
			</g>
			<g>
				<path class="st1" d="M86.1,194.1c2.2,0,9.2-0.4,15.2-5.9c4.5-4.1,7.7-10.1,7.9-17.8c0.2-7.2-2.2-13.4-7.2-18.5l0,0
					c-9-9.2-23.6-11.7-25.3-11.7l-0.1,0c-0.3,0-0.6,0-0.9,0l-0.6,0v2.1l0.6,0c0.3,0,0.6,0,0.8,0l0.1,0c1.5,0,15.3,2.3,23.8,11.1
					c4.6,4.7,6.8,10.4,6.6,17c-0.2,7.1-3.2,12.6-7.2,16.3c-6.3,5.8-14.3,5.3-14.4,5.3l-53.4,0v2.1l53.3,0
					C85.4,194.1,85.7,194.1,86.1,194.1z"/>
			</g>
		</g>
		<g>
			<path class="st2" d="M75.6,142.6c0-0.4,0-0.8,0.1-1.2c-3.2-0.8-6.1-2.4-8.5-4.5c-0.8,0.6-1.4,1.3-1.9,2.1
				c0.2,0.7,0.3,1.4,0.3,2.1c0,1.7-0.5,3.4-1.4,4.7c0.8,3,3.1,5.3,6.2,6.1c0.7-2,2.6-3.4,4.8-3.4c1.3,0,2.4,0.5,3.3,1.2
				c0.2-0.2,0.5-0.5,0.7-0.8C76.9,147.6,75.6,145.3,75.6,142.6z"/>
			<path class="st2" d="M53.7,145c0,1.4-0.5,2.7-1.4,3.7c0.3,0.1,0.5,0.3,0.8,0.4c1.2-1.4,2.9-2.4,4.9-2.4c1.5,0,2.8,0.5,3.8,1.3
				c0.9-0.6,1.6-1.4,2.2-2.3c-0.2-0.7-0.3-1.4-0.3-2.2c0-1.7,0.5-3.3,1.4-4.7c-0.2-0.7-0.5-1.5-0.8-2.1c-1.5,0.6-3.1,1-4.9,1
				c-2.4,0-4.7-0.7-6.7-1.9c0,0,0,0,0,0c-1,0.4-2.1,0.7-3.3,0.7c-0.2,0-0.4,0-0.6,0c-0.5,0.8-0.8,1.7-1,2.7
				C51.1,139.3,53.7,141.9,53.7,145z"/>
			<path class="st3" d="M64,145.8c0.9-1.4,1.4-3,1.4-4.7c0-0.7-0.1-1.4-0.3-2.1c-0.9,1.3-1.4,2.9-1.4,4.7
				C63.8,144.4,63.9,145.1,64,145.8z"/>
			<g>
				<path class="st2" d="M54.9,132.4c0.1,0,0.1,0,0.2,0C55,132.4,55,132.4,54.9,132.4z"/>
				<path class="st2" d="M46.8,125.1c0-1.6,0.3-3.2,0.9-4.6c-1,0.2-1.9,0.6-2.7,1.2c0.1,0.4,0.1,0.8,0.1,1.2c0,2.3-1.6,4.2-3.7,4.7
					c0,0.3-0.1,0.6-0.1,0.9c0,4.3,3.4,7.9,7.6,8.1c0.5-0.8,1.1-1.6,1.8-2.2C48.3,132.1,46.8,128.8,46.8,125.1z"/>
				<path class="st2" d="M55.7,132.3c0.1,0,0.1,0,0.2,0C55.8,132.3,55.7,132.3,55.7,132.3z"/>
				<path class="st2" d="M54.2,132.6C54.2,132.6,54.2,132.6,54.2,132.6C54.2,132.6,54.2,132.6,54.2,132.6z"/>
				<path class="st2" d="M51.4,134c0,0,0.1-0.1,0.1-0.1C51.5,133.9,51.4,134,51.4,134z"/>
				<path class="st2" d="M52,133.6C52,133.5,52.1,133.5,52,133.6C52.1,133.5,52,133.5,52,133.6z"/>
				<path class="st2" d="M53.4,132.9c0.1,0,0.1,0,0.2-0.1C53.5,132.8,53.4,132.9,53.4,132.9z"/>
				<path class="st2" d="M52.7,133.2C52.8,133.1,52.8,133.1,52.7,133.2C52.8,133.1,52.8,133.1,52.7,133.2z"/>
			</g>
			<path class="st3" d="M50.8,134.4c-0.7,0.6-1.3,1.4-1.8,2.2c0.2,0,0.4,0,0.6,0c1.2,0,2.3-0.2,3.3-0.7
				C52.1,135.5,51.4,135,50.8,134.4z"/>
			<path class="st2" d="M45,121.7c-0.2-0.8-0.6-1.6-1.2-2.2c-0.8,0.9-2,1.5-3.3,1.5c-1.4,0-2.7-0.7-3.5-1.7
				c-0.9,0.9-1.5,2.1-1.5,3.5c0,0.9,0.3,1.7,0.7,2.5c0.1,0,0.3,0,0.4,0c1.6,0,3.1,1,3.7,2.4c0.4,0,0.8-0.1,1.2-0.1
				C41.7,125.1,43,123,45,121.7z"/>
			<path class="st2" d="M48.9,107.8c0-0.5,0-0.9,0.1-1.4c-0.5-0.1-1-0.2-1.5-0.2c-0.8,0-1.6,0.2-2.3,0.4c0,0,0,0.1,0,0.1
				c0,2.2-1.8,4.1-4,4.2c-0.1,0.5-0.2,1-0.2,1.5c2.1,0.3,3.8,2.1,3.8,4.3c0,0.6-0.1,1.2-0.4,1.7c0.9,0.5,2,0.8,3.1,0.8
				c0.3,0,0.5,0,0.8,0c0.8-1.6,2-2.9,3.4-4C49.9,113.1,48.9,110.6,48.9,107.8z"/>
			<g>
				<path class="st2" d="M52.8,114.3c0,0-0.1,0-0.1,0.1C52.7,114.3,52.8,114.3,52.8,114.3z"/>
				<path class="st2" d="M61.1,96.6c-0.9,3.7-4.2,6.4-8.1,6.4c-1,0-1.9-0.2-2.8-0.5c-0.6,1.2-1,2.4-1.2,3.8c2.9,0.7,5,3.2,5,6.3
					c0,0.3,0,0.7-0.1,1c0,0,0,0,0,0c1.7-0.8,3.6-1.3,5.6-1.3c1.1,0,2.1,0.1,3,0.4c1.8-3.6,4.7-6.6,8.1-8.5
					C69.3,100.1,65.6,97,61.1,96.6z"/>
			</g>
			<path class="st3" d="M59.5,112.4c-2,0-3.9,0.5-5.6,1.3c-0.1,1-0.5,1.9-1,2.6c1.9,1.6,4.5,2.6,7.2,2.6c0.2,0,0.3,0,0.5,0
				c0.3-2.2,1-4.3,2-6.2C61.6,112.5,60.6,112.4,59.5,112.4z"/>
			<path class="st2" d="M79.1,150.7c-0.2-0.3-0.5-0.6-0.9-0.9c-1.5,1.5-3.6,2.4-6,2.4c-0.7,0-1.4-0.1-2.1-0.3
				c-0.2,0.5-0.3,0.9-0.3,1.4c1,0.1,1.8,0.6,2.4,1.3c0,0,0,0,0,0.1c0.1,0.1,0.1,0.1,0.2,0.2c0,0,0.1,0.1,0.1,0.1
				c0,0.1,0.1,0.1,0.1,0.2c0,0,0.1,0.1,0.1,0.1c0,0.1,0.1,0.1,0.1,0.2c0,0.1,0.1,0.1,0.1,0.2c0,0.1,0.1,0.1,0.1,0.2
				c0,0.1,0,0.1,0.1,0.2c0,0.1,0,0.1,0.1,0.2c0,0.1,0,0.1,0.1,0.2c0,0.1,0,0.1,0,0.2c0,0.1,0,0.2,0,0.3c0,0,0,0.1,0,0.1
				c0,0.1,0,0.3,0,0.4c0,0.2,0,0.4,0,0.5c0,0,0,0.1,0,0.1c0,0.2-0.1,0.3-0.1,0.5c0.6,0.2,1.2,0.3,1.8,0.3c2.2,0,4.1-1.4,4.8-3.4
				c-0.7-0.8-1.1-1.8-1.1-2.9C78.7,151.9,78.9,151.2,79.1,150.7z"/>
			<path class="st2" d="M69.9,153.7c0-0.1,0-0.2,0-0.3l0,0c-0.2,0-0.4-0.1-0.6-0.1c-2.2,0-4.1,1.8-4.1,4.1c0,2.2,1.8,4.1,4.1,4.1
				c1.9,0,3.4-1.2,3.9-3C71.2,157.7,69.9,155.9,69.9,153.7z"/>
			<path class="st2" d="M90.8,142.1c-1.1-0.3-2.2-0.7-3.1-1.4c-2.2,0.8-4.6,1.3-7.2,1.3c0,0,0.1,0,0.1,0c0.1,0.5,0.2,1.1,0.2,1.6
				c0,2-0.7,3.9-1.9,5.3c0.3,0.2,0.6,0.4,0.9,0.5c0.8-0.8,1.9-1.3,3.1-1.3c1.3,0,2.4,0.6,3.2,1.4c2.7-1.2,4.6-3.9,4.6-7
				C90.9,142.4,90.9,142.3,90.8,142.1z"/>
			<path class="st3" d="M79,149c1.2-1.5,1.9-3.3,1.9-5.3c0-0.5-0.1-1.1-0.2-1.6c0,0-0.1,0-0.1,0c-1.7,0-3.4-0.2-4.9-0.6
				c-0.1,0.4-0.1,0.8-0.1,1.2C75.6,145.3,76.9,147.6,79,149z"/>
			<path class="st2" d="M102.1,130c-1,0-1.9-0.2-2.8-0.4c-1.8,4.3-5,7.8-9,10c0.3,0.8,0.5,1.6,0.6,2.5c0.7,0.2,1.4,0.3,2.2,0.3
				c0.5,0,1-0.1,1.5-0.1c0-0.1-0.1-0.2-0.1-0.3c0,0,0,0,0-0.1c0-0.1,0-0.2-0.1-0.3c0,0,0-0.1,0-0.2c0-0.1,0-0.1,0-0.2
				c0-0.1,0-0.3,0-0.4c0-2.4,1.9-4.4,4.4-4.4c0.1,0,0.3,0,0.4,0c0,0,0.1,0,0.1,0c0.1,0,0.2,0,0.3,0c0.1,0,0.1,0,0.2,0
				c0.1,0,0.1,0,0.2,0.1c0.1,0,0.1,0,0.2,0.1c0.1,0,0.1,0,0.2,0.1c0.1,0,0.1,0,0.2,0.1c0.1,0,0.1,0.1,0.2,0.1c0.1,0,0.1,0.1,0.2,0.1
				c0,0,0.1,0,0.1,0.1c0.2,0.1,0.3,0.2,0.5,0.3c0,0,0,0,0,0c0.7-1.3,1.1-2.9,1.1-4.5C102.5,131.9,102.4,130.9,102.1,130z"/>
			<path class="st3" d="M54,112.7c0-3.1-2.1-5.7-5-6.3c-0.1,0.5-0.1,0.9-0.1,1.4c0,2.8,1,5.4,2.8,7.3c0.3-0.3,0.7-0.5,1-0.7
				c0,0,0.1,0,0.1-0.1c0.4-0.2,0.7-0.4,1.1-0.6c0,0,0,0,0,0C54,113.4,54,113,54,112.7z"/>
			<path class="st4" d="M53.9,113.7c-0.8,0.4-1.6,0.9-2.3,1.4c0.4,0.4,0.8,0.8,1.2,1.2C53.4,115.6,53.8,114.7,53.9,113.7z"/>
			<path class="st2" d="M36.8,106.7c0-0.4,0.1-0.7,0.1-1.1c-0.5-0.3-1.2-0.5-1.8-0.5c-2.1,0-3.8,1.7-3.8,3.8c0,2.1,1.7,3.8,3.8,3.8
				c1.6,0,3-1,3.5-2.5C37.6,109.4,36.8,108.1,36.8,106.7z"/>
			<path class="st2" d="M60.1,96.6c0.3,0,0.7,0,1,0.1c0.1-0.6,0.2-1.3,0.2-1.9c0-0.9-0.1-1.7-0.4-2.5c-0.3,0.1-0.7,0.1-1,0.1
				c-3.4,0-6.2-2.6-6.5-6c-0.2,0-0.3,0-0.5,0c-0.7,0-1.4,0.1-2,0.3c0,2.3-1.9,4.2-4.3,4.2c-0.4,0-0.7-0.1-1.1-0.1
				c-0.7,1.2-1,2.6-1,4.1c0,3.6,2.3,6.7,5.6,7.9C52,99,55.8,96.6,60.1,96.6z"/>
			<path class="st2" d="M42.4,86.5c0-1.2,0.5-2.4,1.4-3.1c-0.6-0.9-1.7-1.4-2.8-1.4c-1.9,0-3.5,1.6-3.5,3.5c0,1.9,1.6,3.5,3.5,3.5
				c0.7,0,1.3-0.2,1.9-0.6C42.6,87.8,42.4,87.2,42.4,86.5z"/>
			<path class="st2" d="M59.9,79.2c0.3,0,0.7,0,1,0.1c0-0.2,0-0.3,0-0.5c0-3.2-2.6-5.8-5.8-5.8c-3.2,0-5.8,2.6-5.8,5.8
				c0,2.7,1.8,4.9,4.2,5.6C54.1,81.4,56.8,79.2,59.9,79.2z"/>
			<path class="st2" d="M77.7,81.1c0-2.2,0.9-4.1,2.3-5.5c-1.2-1-2.6-1.7-4.1-2.2c-2,2.1-4.8,3.4-7.9,3.4c-1.3,0-2.5-0.2-3.7-0.6
				c-1,1-1.8,2.1-2.5,3.3c2.7,0.8,4.6,3.3,4.6,6.3c0,2.6-1.5,4.8-3.6,5.9c2.1,3,5.7,5,9.6,5c0.1,0,0.2,0,0.3,0
				c1.8-3.7,5.5-6.2,9.9-6.2c0.1,0,0.1,0,0.2,0c0.3-0.5,0.5-1,0.7-1.6C80.2,87.9,77.7,84.8,77.7,81.1z"/>
			<path class="st2" d="M80.6,101.7c4.6,0,8.8,1.5,12.2,4.1c0.5-1.2,0.9-2.5,0.9-3.9c-2.9-1.2-5-4.1-5-7.4c0-0.7,0.1-1.5,0.3-2.1
				c-1.7-1.2-3.8-1.9-6.1-1.9c-1.9,3.6-5.7,6.1-10.1,6.2c-0.7,1.4-1.1,3.1-1.1,4.8c0,0.8,0.1,1.5,0.2,2.3
				C74.6,102.4,77.5,101.7,80.6,101.7z"/>
			<path class="st2" d="M102.2,96c-2.5-1.6-4.1-4.4-4.1-7.5c0-0.7,0.1-1.3,0.2-1.9c-0.5-0.1-1-0.2-1.6-0.2c-3.7,0-6.8,2.5-7.7,5.9
				c2.9,2,4.8,5.3,4.8,9.1c0,0.2,0,0.3,0,0.5c0.9,0.4,1.9,0.6,3,0.6c2.6,0,4.8-1.2,6.3-3.1C102.6,98.3,102.3,97.2,102.2,96z"/>
			<path class="st2" d="M111.6,118.2c-4-0.4-7.1-3.5-7.7-7.4c-0.6-0.1-1.1-0.2-1.7-0.2c-1.5,0-2.9,0.3-4.1,0.9
				c1.8,3,2.8,6.5,2.8,10.3c0,1.7-0.2,3.3-0.6,4.8c0.8,1,1.5,2.1,1.9,3.3c0,0,0,0,0,0c1.5,0,2.9-0.3,4.1-0.9
				c-0.3-0.7-0.5-1.4-0.5-2.2c0-2.9,2.3-5.2,5.2-5.2c0.2,0,0.5,0,0.7,0.1c0.1-0.4,0.1-0.9,0.1-1.4
				C111.8,119.6,111.7,118.9,111.6,118.2z"/>
			<path class="st2" d="M114.4,128.7C114.4,128.7,114.4,128.7,114.4,128.7c-0.2-0.2-0.3-0.4-0.4-0.5c0-0.1-0.1-0.1-0.1-0.2
				c-0.1-0.1-0.2-0.3-0.2-0.4c0-0.1-0.1-0.1-0.1-0.2c-0.1-0.1-0.1-0.3-0.2-0.4c0-0.1-0.1-0.2-0.1-0.2c0-0.1-0.1-0.3-0.1-0.4
				c0-0.1,0-0.2-0.1-0.2c0-0.2-0.1-0.3-0.1-0.5c0-0.1,0-0.1,0-0.2c0-0.2,0-0.5,0-0.7c0-0.2,0-0.4,0-0.6c0,0,0-0.1,0-0.1
				c0-0.2,0-0.3,0.1-0.5c0,0,0-0.1,0-0.1c0-0.2,0.1-0.3,0.1-0.5c0,0,0,0,0-0.1c0.1-0.2,0.1-0.4,0.2-0.6c-0.6-0.3-1.2-0.5-1.9-0.6
				c-0.5,3.3-2.6,6-5.5,7.4c0.8,1.8,2.6,3,4.7,3c1.9,0,3.5-1,4.4-2.4C115,129.4,114.7,129.1,114.4,128.7z"/>
			<path class="st2" d="M122.4,124.6c-2.1-1.4-3.7-3.5-4.4-6c-2,0.4-3.6,1.8-4.4,3.7c1.6,0.9,2.7,2.6,2.7,4.6c0,1-0.3,2-0.8,2.8
				c1.1,0.9,2.5,1.4,4,1.4c0.4,0,0.9,0,1.3-0.1c-0.1-0.4-0.1-0.8-0.1-1.2C120.5,127.8,121.2,126,122.4,124.6z"/>
			<path class="st2" d="M134.9,113.9c0-0.3,0-0.5,0-0.8c-4.9-0.2-9.1-2.9-11.5-6.8c-0.9,0.4-1.7,1-2.4,1.7c0.1,0.5,0.1,1,0.1,1.6
				c0,2.9-1.4,5.4-3.5,7c0.1,0.7,0.2,1.4,0.4,2.1c0.4-0.1,0.9-0.1,1.3-0.1c2.7,0,5,1.7,5.9,4.1c0.9-0.4,2-0.6,3.1-0.6
				c2.3,0,4.3,1,5.7,2.5c1-0.7,1.8-1.5,2.5-2.4C135.5,119.5,134.9,116.8,134.9,113.9z"/>
			<path class="st2" d="M122.4,93.6c-0.1,0-0.2,0-0.3,0c-2.5,0-4.8-0.9-6.6-2.3c-1.2,3.5-4.5,6-8.5,6c-0.9,0-1.9-0.1-2.7-0.4
				c-0.3,0.9-0.7,1.7-1.3,2.4c0.7,1.6,1.8,3.1,3.2,4.2c1.6-1.7,3.8-2.7,6.3-2.7c2.7,0,5.1,1.2,6.7,3.1c0.9-0.7,1.8-1.4,2.4-2.4
				c-0.2-0.9-0.3-1.8-0.3-2.7C121.3,97.1,121.7,95.3,122.4,93.6z"/>
			<g>
				<path class="st2" d="M135.6,127.1c-0.4-1-0.9-1.9-1.6-2.6c-1.7,1.1-3.7,1.8-5.9,1.8c-0.9,0-1.8-0.1-2.6-0.3c0,0,0,0,0,0
					c-0.5,2.5-2.4,4.5-4.9,5c0.1,0.5,0.2,1,0.4,1.5c0.7-0.4,1.6-0.6,2.5-0.6c2.9,0,5.2,2.3,5.2,5.2c0,0.2,0,0.3,0,0.5
					c0.5,0,1-0.1,1.5-0.2c0-0.1,0-0.1,0-0.2C130.1,132.9,132.3,129.2,135.6,127.1z"/>
				<path class="st2" d="M123.3,125.1c0,0-0.1,0-0.1-0.1C123.2,125.1,123.2,125.1,123.3,125.1z"/>
				<path class="st2" d="M124.7,125.7C124.7,125.7,124.7,125.7,124.7,125.7C124.7,125.7,124.7,125.7,124.7,125.7z"/>
				<path class="st2" d="M124,125.5C123.9,125.4,123.9,125.4,124,125.5C123.9,125.4,123.9,125.4,124,125.5z"/>
			</g>
			<path class="st3" d="M120.6,131c2.5-0.5,4.4-2.5,4.9-5c0,0,0,0,0,0c-0.3-0.1-0.5-0.1-0.8-0.2c0,0,0,0,0,0
				c-0.2-0.1-0.5-0.2-0.7-0.3c0,0-0.1,0-0.1,0c-0.2-0.1-0.4-0.2-0.6-0.3c0,0-0.1,0-0.1-0.1c-0.2-0.1-0.5-0.3-0.7-0.4
				c-1.2,1.4-1.9,3.2-1.9,5.1C120.5,130.2,120.5,130.6,120.6,131z"/>
			<path class="st2" d="M132.7,157.3c0.1,0,0.1,0,0.2,0c0.3-0.5,0.5-1.2,0.5-1.8c0-2.2-1.8-3.9-3.9-3.9c-2.2,0-3.9,1.8-3.9,3.9
				c0,2.1,1.6,3.7,3.6,3.9C129.8,158.1,131.1,157.3,132.7,157.3z"/>
			<path class="st2" d="M165.6,131.4c-3,1.8-6.6,2.8-10.4,2.8c-0.7,0-1.3,0-2-0.1c0.2,0.9,0.4,1.9,0.4,2.9c0,2.7-0.9,5.1-2.4,7.1
				c0.6,1,1.4,1.8,2.3,2.5c1.5-1.5,3.5-2.4,5.7-2.4c2.3,0,4.3,1,5.8,2.5c2.5-1.8,4.1-4.7,4.1-7.9
				C169.2,135.9,167.8,133.2,165.6,131.4z"/>
			<path class="st2" d="M159.4,148.7c-2.2,0-4.2-0.7-5.8-1.9c-0.2,0.2-0.5,0.5-0.7,0.8c1.3,1.2,2.1,2.9,2.1,4.8
				c0,1.9-0.8,3.7-2.2,4.9c1.5,2,3.8,3.2,6.4,3.2c4.4,0,8-3.6,8-8c0-2.1-0.8-4.1-2.2-5.5C163.5,148,161.5,148.7,159.4,148.7z"/>
			<path class="st2" d="M149.8,145.9c-1.9,1.7-4.3,2.8-7,3c-0.6,1-1,2.2-1,3.4c0,0.6,0.1,1.1,0.2,1.7c0.2,0,0.5-0.1,0.7-0.1
				c2.8,0,5.1,2.2,5.3,5c0.1,0,0.3,0,0.4,0c1.7,0,3.3-0.7,4.4-1.7c-1-1.3-1.6-3-1.6-4.8c0-1.8,0.6-3.5,1.7-4.9
				C152,146.7,151,146.1,149.8,145.9z"/>
			<path class="st2" d="M142,154c-2.6,0.4-4.5,2.5-4.5,5.2c0,2.9,2.4,5.3,5.3,5.3c2.9,0,5.3-2.4,5.3-5.3c0-0.1,0-0.2,0-0.3
				C145.1,158.7,142.7,156.7,142,154z"/>
			<path class="st2" d="M173,131.1c0.7-1.7,2.4-2.9,4.3-2.9c0.4,0,0.8,0.1,1.2,0.2c1-1.3,1.6-2.8,1.6-4.6c0-0.5,0-0.9-0.1-1.3
				c-0.4,0.1-0.9,0.2-1.3,0.2c-1.7,0-3.2-0.8-4.2-1.9c-1.2,3.5-3.4,6.5-6.1,8.8c1.2,1,2.8,1.6,4.6,1.6
				C172.9,131.2,172.9,131.1,173,131.1z"/>
			<path class="st2" d="M166.8,104.4c0.9-3.9,4.2-6.8,8.3-7.1c-0.1-0.5-0.2-1-0.2-1.6c0-0.3,0-0.6,0.1-0.8c-1.1,0.5-2.4,0.8-3.7,0.8
				c-2.5,0-4.8-1-6.5-2.6c-0.7,1.3-1.1,2.8-1.1,4.4C163.8,100.2,164.9,102.6,166.8,104.4z"/>
			<path class="st2" d="M179.9,89.8"/>
			<polygon class="st2" points="180.3,88.9 180.3,88.9 180.3,88.9 			"/>
			<path class="st2" d="M181,89.3C181,89.3,181,89.3,181,89.3C181,89.3,181,89.3,181,89.3z"/>
			<path class="st2" d="M180.4,87.8c0.1-0.5,0.1-0.9,0.1-1.4c0-3-1.4-5.6-3.6-7.3c-1,2.1-3.2,3.6-5.7,3.6c-2.5,0-4.6-1.4-5.7-3.5
				c-2.1,1.7-3.5,4.3-3.5,7.2c0,2.6,1.1,4.9,2.8,6.6c1.6-3.2,5-5.3,8.9-5.3c1.7,0,3.4,0.4,4.8,1.2C179.1,88.5,179.7,88.1,180.4,87.8
				z"/>
			<path class="st2" d="M171.3,77.2c2.1,0,4.1,0.7,5.6,1.9c0.4-0.8,0.7-1.8,0.7-2.8c0-3.5-2.9-6.4-6.4-6.4c-1.2,0-2.3,0.3-3.2,0.9
				c0.1,0.3,0.1,0.7,0.1,1.1c0,2.1-1.4,3.9-3.3,4.6c0,1,0.3,1.9,0.7,2.7C167.1,78,169.1,77.2,171.3,77.2z"/>
			<path class="st2" d="M136.4,109.2C136.4,109.2,136.4,109.2,136.4,109.2c0-0.1-0.1-0.1-0.1-0.2
				C136.3,109.1,136.3,109.1,136.4,109.2z"/>
			<polygon class="st2" points="138,112.1 138,112.1 138,112.1 			"/>
			<path class="st2" d="M137.5,110.9C137.5,110.9,137.5,110.9,137.5,110.9C137.5,110.9,137.5,110.9,137.5,110.9
				C137.5,110.9,137.5,110.9,137.5,110.9z"/>
			<polygon class="st2" points="137,110.1 137,110.1 137,110.1 			"/>
			<path class="st3" d="M139.7,100.7c-1.9,2.2-3.2,4.8-4,7.6c1.2,1.2,2.1,2.8,2.6,4.5c3.1-0.6,5.9-2.3,7.9-4.6
				C143,106.8,140.6,104.1,139.7,100.7z"/>
			<path class="st2" d="M148.9,94.5c2-0.7,4.1-1,6.4-1c2.5,0,4.9,0.4,7.1,1.3c-1-4-4-7.2-7.9-8.4c-1.1,1.2-2.6,1.9-4.3,1.9
				c-1.5,0-2.8-0.6-3.8-1.5c-0.7,0.3-1.3,0.7-2,1.1C146.4,89.6,148,91.9,148.9,94.5z"/>
			<path class="st2" d="M146.2,86.8c1.4-0.6,3-1,4.7-1c1.2,0,2.4,0.2,3.4,0.5c0.9-1,1.5-2.4,1.5-3.9c0-3.2-2.6-5.8-5.8-5.8
				c-0.7,0-1.4,0.1-2,0.4c0,2.3-1.6,4.3-3.8,4.8c0,0.2,0,0.4,0,0.7C144.3,84.2,145,85.7,146.2,86.8z"/>
			<path class="st2" d="M148.1,77C148.1,77,148.1,77,148.1,77c0-2-1.1-3.6-2.7-4.5c-1.3,1.7-3.3,2.8-5.6,2.8c-0.5,0-0.9,0-1.3-0.1
				c-0.2,0.5-0.3,1.1-0.3,1.8c0,2.8,2.2,5,5,5c0.4,0,0.8-0.1,1.2-0.2C144.6,79.6,146.1,77.7,148.1,77z"/>
			<path class="st2" d="M143.1,72c0.8,0,1.6,0.2,2.3,0.6c0.9-1.2,1.5-2.7,1.5-4.3c0-3.9-3.2-7.1-7.1-7.1c-3.9,0-7.1,3.2-7.1,7.1
				c0,3.5,2.5,6.4,5.8,7C139.2,73.3,141,72,143.1,72z"/>
			<path class="st3" d="M126.9,86.2c0,1.9,0.8,3.7,2,5c2.4-2,4-5,4-8.4c0-1.2-0.2-2.4-0.6-3.5C129.2,80.1,126.9,82.9,126.9,86.2z"/>
			<path class="st2" d="M122.3,89.6c0.1,0.2,0.3,0.5,0.4,0.7c0,0,0,0,0,0c0.2,0.5,0.4,1,0.6,1.5c1-1.7,2.3-3.1,3.8-4.2
				c-0.1-0.4-0.1-0.9-0.1-1.4c0-3.3,2.3-6.1,5.4-6.9c-1.5-4.3-5.5-7.3-10.2-7.3c-1.4,0-2.7,0.3-3.9,0.7c0.1,0.5,0.1,1.1,0.1,1.6
				c0,3.5-1.9,6.5-4.8,8.1c0.6,0.6,1.1,1.4,1.4,2.1c0.1,0,0.2,0,0.3,0.1c0.2,0,0.4,0.1,0.6,0.2c0.1,0,0.3,0.1,0.4,0.1
				c0.2,0.1,0.3,0.1,0.5,0.2c0.1,0.1,0.3,0.1,0.4,0.2c0.2,0.1,0.3,0.2,0.5,0.2c0.1,0.1,0.2,0.1,0.4,0.2c0.2,0.1,0.5,0.3,0.7,0.4
				c0.1,0.1,0.3,0.2,0.4,0.3c0.1,0.1,0.2,0.2,0.3,0.2c0.1,0.1,0.3,0.2,0.4,0.4c0.1,0.1,0.2,0.1,0.2,0.2c0.1,0.1,0.3,0.3,0.4,0.4
				c0,0,0.1,0.1,0.1,0.1C121.4,88.3,121.8,88.9,122.3,89.6C122.2,89.6,122.2,89.6,122.3,89.6z"/>
			<path class="st3" d="M128.9,91.2c-0.9-1-1.6-2.2-1.9-3.6c-1.5,1.1-2.8,2.6-3.8,4.2c0.2,0.5,0.3,1.1,0.4,1.7
				C125.6,93.2,127.4,92.4,128.9,91.2z"/>
			<g>
				<path class="st4" d="M132.7,85.1c-2.1,0.4-4,1.3-5.6,2.5c0.3,1.4,0.9,2.6,1.9,3.6C130.8,89.7,132.2,87.6,132.7,85.1z"/>
			</g>
			<path class="st2" d="M102.5,80.7c1.3-0.8,2.9-1.2,4.5-1.2c1.6,0,3.2,0.5,4.5,1.2c0.7-3.7,3.3-6.6,6.7-7.9
				c-0.8-4.3-4.5-7.6-9.1-7.6c-0.7,0-1.3,0.1-1.9,0.2c0.2,0.7,0.3,1.4,0.3,2.2c0,4.3-3.3,7.7-7.5,7.9
				C100.3,77.5,101.2,79.3,102.5,80.7z"/>
			<path class="st2" d="M100,74.4c0-4.4,3.1-8.1,7.3-9c-1-3.3-4-5.8-7.6-5.8c-0.6,0-1.2,0.1-1.7,0.2c0,0.3,0,0.5,0,0.8
				c0,4.2-2.4,7.9-5.8,9.7c0.2,0.5,0.4,1,0.7,1.4c0.4-0.1,0.9-0.2,1.4-0.2c2.4,0,4.3,1.8,4.6,4c0.3,0,0.5,0,0.8,0c0.1,0,0.3,0,0.4,0
				C100,75.1,100,74.7,100,74.4z"/>
			<path class="st2" d="M89.6,76.1c0-0.5,0.1-1,0.2-1.4c-1.2-0.8-2.7-1.3-4.4-1.3c-2.1,0-4.1,0.9-5.5,2.3c2.6,2.2,4.3,5.5,4.3,9.1
				c0,1.4-0.3,2.7-0.7,4c0.6,0.1,1.2,0.2,1.9,0.2c4.3,0,7.8-3.5,7.8-7.8c0-0.2,0-0.4,0-0.5C91.2,80.1,89.6,78.3,89.6,76.1z"/>
			<path class="st2" d="M148.3,52.7C148.3,52.7,148.3,52.7,148.3,52.7c-0.6-0.3-1.4-0.5-2.2-0.5c-2.5,0-4.6,2.1-4.6,4.6
				c0,2.5,2,4.6,4.6,4.6c2.5,0,4.6-2.1,4.6-4.6c0-0.2,0-0.4,0-0.6C149.2,55.6,148.3,54.2,148.3,52.7z"/>
			<path class="st2" d="M130.2,52.4c0-0.5,0.1-0.9,0.2-1.3c-1.6-1.2-3.6-2-5.8-2c-5.2,0-9.5,4.2-9.5,9.5c0,5.2,4.2,9.5,9.5,9.5
				c5.2,0,9.5-4.2,9.5-9.5c0-0.2,0-0.5,0-0.7C131.7,57,130.2,54.9,130.2,52.4z"/>
			<path class="st2" d="M76.1,62.4c-3.5-0.7-6.1-3.8-6.2-7.4c-0.5-0.1-1-0.2-1.6-0.2c-1,1.4-2.6,2.4-4.4,2.4c-0.8,0-1.5-0.2-2.2-0.5
				c-1,0.7-1.8,1.5-2.5,2.4c0.3,0.7,0.5,1.4,0.5,2.2c0,2-1.1,3.8-2.7,4.7c0.1,4.7,3.1,8.7,7.3,10.2c2.1-2,5-3.3,8.1-3.3
				c1.2,0,2.4,0.2,3.5,0.5c1.4-1.5,2.5-3.4,2.9-5.5C77.4,66.4,76.5,64.5,76.1,62.4z"/>
			<path class="st3" d="M76.1,62.4c0.4,2.1,1.3,4,2.7,5.5c0.1-0.7,0.2-1.4,0.2-2.1c0-1.1-0.2-2.2-0.5-3.2c-0.3,0-0.5,0-0.8,0
				C77.2,62.6,76.6,62.5,76.1,62.4z"/>
			<path class="st2" d="M87,49.5c5.4,0,9.9,3.9,10.8,9c1-0.5,2-1.1,2.7-2c-1.8-1.7-2.9-4.2-2.9-6.8c0-1.9,0.6-3.7,1.6-5.2
				c-1.3-0.9-2.9-1.5-4.7-1.5c-3.9,0-7.2,2.8-7.9,6.5C86.7,49.5,86.8,49.5,87,49.5z"/>
			<path class="st3" d="M87,49.5c-0.1,0-0.3,0-0.4,0c-0.1,0.5-0.2,1.1-0.2,1.6c0,4.5,3.6,8.1,8.1,8.1c1.2,0,2.3-0.3,3.3-0.7
				C96.9,53.4,92.4,49.5,87,49.5z"/>
			<path class="st2" d="M83.9,50c-1.4-1.8-3.6-3-6.1-3c-4.3,0-7.8,3.5-7.8,7.8c0,0.1,0,0.1,0,0.2c2.5,0.4,4.6,1.7,6.2,3.5
				C76.9,54.4,79.9,51.1,83.9,50z"/>
			<path class="st3" d="M76.2,58.4c1.1,1.2,1.9,2.6,2.4,4.1c3.9-0.4,7-3.7,7-7.8c0-1.8-0.6-3.5-1.7-4.8
				C79.9,51.1,76.9,54.4,76.2,58.4z"/>
			<path class="st2" d="M79.4,36.4c2.6,0,4.7,2.1,4.7,4.7c0,2.6-2.1,4.7-4.7,4.7c-2.6,0-4.7-2.1-4.7-4.7
				C74.7,38.5,76.8,36.4,79.4,36.4"/>
			<path class="st2" d="M91,33.2c2.2,0,4.1,1.8,4.1,4.1c0,2.2-1.8,4.1-4.1,4.1c-2.2,0-4.1-1.8-4.1-4.1C86.9,35,88.7,33.2,91,33.2"/>
			<path class="st2" d="M104.1,32.1c1.8,0,3.3,1.5,3.3,3.3c0,1.8-1.5,3.3-3.3,3.3c-1.8,0-3.3-1.5-3.3-3.3
				C100.7,33.6,102.2,32.1,104.1,32.1"/>
			<path class="st2" d="M122.7,32.1c4.3,0,7.7,3.5,7.7,7.7c0,4.3-3.5,7.7-7.7,7.7c-4.3,0-7.7-3.5-7.7-7.7
				C115,35.6,118.5,32.1,122.7,32.1"/>
			<path class="st2" d="M138.1,46.9c-0.8,0.6-1.7,0.9-2.7,0.9c-0.8,0-1.5-0.2-2.2-0.6c-1.4,0.8-2.5,2.2-2.9,3.8
				c2.1,1.6,3.5,4,3.7,6.8c0.6,0.2,1.3,0.4,2.1,0.4c3.2,0,5.9-2.6,5.9-5.9C141.9,49.9,140.3,47.7,138.1,46.9z"/>
			<path class="st3" d="M134,57.9c-0.2-2.8-1.6-5.2-3.7-6.8c-0.1,0.4-0.2,0.9-0.2,1.3C130.2,54.9,131.7,57,134,57.9z"/>
			<path class="st2" d="M133.2,47.2c0.8-0.5,1.8-0.7,2.8-0.7c0.7,0,1.4,0.1,2.1,0.4c1.1-0.8,1.9-2.2,1.9-3.7c0-2.5-2.1-4.6-4.6-4.6
				c-2.5,0-4.6,2.1-4.6,4.6C130.8,44.9,131.8,46.4,133.2,47.2z"/>
			<path class="st3" d="M136,46.5c-1,0-2,0.3-2.8,0.7c0.7,0.4,1.4,0.6,2.2,0.6c1,0,1.9-0.3,2.7-0.9C137.5,46.6,136.8,46.5,136,46.5z
				"/>
			<path class="st2" d="M107.1,40.2c-3.3,0-6.2,1.7-7.9,4.3c2.1,1.5,3.4,3.9,3.4,6.6c0,2.1-0.8,4-2.1,5.4c1.7,1.6,4,2.7,6.6,2.7
				c5.3,0,9.5-4.3,9.5-9.5C116.6,44.5,112.4,40.2,107.1,40.2z"/>
			<path class="st3" d="M99.2,44.5c-1,1.5-1.6,3.3-1.6,5.2c0,2.7,1.1,5.1,2.9,6.8c1.3-1.4,2.1-3.3,2.1-5.4
				C102.6,48.4,101.2,46,99.2,44.5z"/>
			<path class="st2" d="M151.9,49c-2,0-3.7,1.6-3.7,3.7c1.3,0.7,2.2,1.9,2.4,3.4c0.4,0.2,0.8,0.2,1.3,0.2c2,0,3.7-1.6,3.7-3.7
				C155.6,50.6,154,49,151.9,49z"/>
			<path class="st3" d="M150.6,56.1c-0.2-1.5-1.1-2.7-2.4-3.4c0,0,0,0,0,0C148.3,54.2,149.2,55.6,150.6,56.1z"/>
			<path class="st2" d="M154.9,59.2c2,0,3.7,1.6,3.7,3.7c0,2-1.6,3.7-3.7,3.7c-2,0-3.7-1.6-3.7-3.7
				C151.2,60.8,152.9,59.2,154.9,59.2"/>
			<path class="st2" d="M164.3,56.8c2.3,0,4.1,1.8,4.1,4.1c0,2.3-1.8,4.1-4.1,4.1c-2.3,0-4.1-1.8-4.1-4.1
				C160.2,58.6,162.1,56.8,164.3,56.8"/>
			<path class="st3" d="M91.7,67.5c0,1,0.2,1.9,0.5,2.7c3.5-1.9,5.8-5.5,5.8-9.7c0-0.3,0-0.5,0-0.8C94.4,60.5,91.7,63.7,91.7,67.5z"
				/>
			<path class="st3" d="M100,74.4c0,0.4,0,0.8,0.1,1.1c4.2-0.2,7.5-3.7,7.5-7.9c0-0.8-0.1-1.5-0.3-2.2C103.1,66.2,100,69.9,100,74.4
				z"/>
			<path class="st3" d="M148.9,94.5c0.5,1.4,0.7,2.9,0.7,4.5c0,3.5-1.3,6.8-3.5,9.3c1.5,0.6,3.1,1,4.8,1c6.5,0,11.7-5.2,11.7-11.7
				c0-1-0.1-1.9-0.3-2.8c-2.2-0.8-4.6-1.3-7.1-1.3C153,93.5,150.9,93.8,148.9,94.5z"/>
			<path class="st2" d="M61.8,56.7c1.8-1.2,3.9-1.9,6.2-1.9c0.1,0,0.2,0,0.4,0c0.6-0.8,0.9-1.9,0.9-3c0-2.9-2.4-5.3-5.3-5.3
				c-3,0-5.3,2.4-5.3,5.3C58.6,54,59.9,55.9,61.8,56.7z"/>
			<path class="st3" d="M68,54.8c-2.3,0-4.5,0.7-6.2,1.9c0.7,0.3,1.4,0.5,2.2,0.5c1.9,0,3.5-0.9,4.4-2.4
				C68.2,54.8,68.1,54.8,68,54.8z"/>
			<path class="st2" d="M57,65.8c0-2.5,0.9-4.8,2.3-6.7c-0.8-1.9-2.7-3.2-4.9-3.2c-3,0-5.3,2.4-5.3,5.3c0,3,2.4,5.3,5.3,5.3
				c0.9,0,1.8-0.2,2.6-0.7C57,65.9,57,65.8,57,65.8z"/>
			<path class="st3" d="M57,65.9c1.6-0.9,2.7-2.7,2.7-4.7c0-0.8-0.2-1.5-0.5-2.2C57.8,61,57,63.3,57,65.8C57,65.8,57,65.9,57,65.9z"
				/>
			<path class="st2" d="M46.5,67c2.3,0,4.1,1.8,4.1,4.1c0,2.3-1.8,4.1-4.1,4.1c-2.3,0-4.1-1.8-4.1-4.1C42.4,68.8,44.2,67,46.5,67"/>
			<path class="st3" d="M41.4,127.6c2.1-0.5,3.7-2.4,3.7-4.7c0-0.4-0.1-0.8-0.1-1.2C43,123,41.7,125.1,41.4,127.6z"/>
			<path class="st2" d="M61,92.2c0.7-0.1,1.3-0.3,1.9-0.6c-1.4-1.9-2.2-4.3-2.2-6.9c0-1.9,0.4-3.7,1.2-5.2c-0.3-0.1-0.6-0.2-0.9-0.2
				c-0.2,3-2.7,5.4-5.8,5.4c-0.5,0-1.1-0.1-1.6-0.2c-0.1,0.4-0.1,0.9-0.1,1.3c0,0.2,0,0.4,0,0.6C57,86.5,60,88.9,61,92.2z"/>
			<path class="st3" d="M53.4,86.3c0.3,3.3,3.1,6,6.5,6c0.4,0,0.7,0,1-0.1C60,88.9,57,86.5,53.4,86.3z"/>
			<path class="st3" d="M53.5,84.4c0.5,0.1,1,0.2,1.6,0.2c3.1,0,5.6-2.4,5.8-5.4c-0.3,0-0.6-0.1-1-0.1
				C56.8,79.2,54.1,81.4,53.5,84.4z"/>
			<path class="st3" d="M66.5,85.7c0-2.9-1.9-5.4-4.6-6.3c-0.8,1.6-1.2,3.4-1.2,5.2c0,2.6,0.8,4.9,2.2,6.9
				C65,90.5,66.5,88.3,66.5,85.7z"/>
			<path class="st3" d="M75.9,73.4c-1.1-0.3-2.3-0.5-3.5-0.5c-3.2,0-6,1.2-8.1,3.3c1.2,0.4,2.4,0.6,3.7,0.6
				C71.1,76.8,73.9,75.5,75.9,73.4z"/>
			<path class="st3" d="M82.9,90.3c-0.1,0-0.1,0-0.2,0c-4.4,0-8.1,2.6-9.9,6.2C77.2,96.4,80.9,93.9,82.9,90.3z"/>
			<path class="st3" d="M89,92.3c-0.2,0.7-0.3,1.4-0.3,2.1c0,3.4,2.1,6.3,5,7.4c0-0.2,0-0.3,0-0.5C93.7,97.6,91.8,94.2,89,92.3z"/>
			<path class="st3" d="M92.4,120.3c0,1.1,0.2,2.1,0.5,3.1c0,0,0.1,0,0.1,0c2.9,0,5.4,1.3,7.2,3.3c0.4-1.5,0.6-3.2,0.6-4.8
				c0-3.8-1-7.3-2.8-10.3C94.7,113.1,92.4,116.5,92.4,120.3z"/>
			<path class="st4" d="M93,123.4c0,0-0.1,0-0.1,0c1,2.9,3.4,5.3,6.3,6.2c0.4-0.9,0.7-1.9,0.9-2.9C98.5,124.7,95.9,123.4,93,123.4z"
				/>
			<g>
				<path class="st3" d="M100.2,126.7c-0.2,1-0.6,2-0.9,2.9c0.9,0.3,1.8,0.4,2.8,0.4C101.7,128.8,101,127.6,100.2,126.7z"/>
			</g>
			<path class="st2" d="M121,108c-0.3-1.5-0.9-2.9-1.9-4c-1.7,1.2-3.9,1.9-6.2,1.9c-2.6,0-4.9-0.9-6.8-2.4c-1.5,1.6-2.4,3.7-2.4,6
				c0,0.4,0,0.8,0.1,1.3c3.8,0.7,6.9,3.6,7.7,7.4c0.3,0,0.6,0,0.9,0c1.9,0,3.7-0.6,5.2-1.7c0-0.3,0-0.5,0-0.8
				C117.6,112.7,118.9,109.9,121,108z"/>
			<path class="st3" d="M103.9,110.8c0.6,3.9,3.7,7,7.7,7.4C110.7,114.4,107.7,111.5,103.9,110.8z"/>
			<path class="st3" d="M121,108c-2.1,1.9-3.4,4.7-3.4,7.8c0,0.3,0,0.5,0,0.8c2.1-1.6,3.5-4.1,3.5-7C121.1,109,121.1,108.5,121,108z
				"/>
			<path class="st3" d="M119.1,104c-1.6-1.9-4-3.1-6.7-3.1c-2.5,0-4.7,1-6.3,2.7c1.9,1.5,4.2,2.4,6.8,2.4
				C115.3,105.9,117.4,105.2,119.1,104z"/>
			<path class="st3" d="M151.2,144.2c1.5-2,2.4-4.4,2.4-7.1c0-1-0.1-2-0.4-2.9c-0.7-0.1-1.5-0.2-2.2-0.3c-0.9,1.5-1.4,3.2-1.4,5.1
				C149.7,140.9,150.2,142.7,151.2,144.2z"/>
			<path class="st3" d="M149.8,145.9c-0.4-0.1-0.9-0.2-1.4-0.2c-2.4,0-4.5,1.3-5.6,3.2C145.4,148.7,147.9,147.6,149.8,145.9z"/>
			<path class="st3" d="M90.8,142.1c-0.1-0.9-0.3-1.7-0.6-2.5c-0.8,0.4-1.6,0.8-2.5,1.2C88.7,141.4,89.7,141.9,90.8,142.1z"/>
			<path class="st3" d="M75,148.6c-2.2,0-4.1,1.4-4.8,3.4c0.7,0.2,1.4,0.3,2.1,0.3c2.3,0,4.4-0.9,6-2.4
				C77.4,149,76.3,148.6,75,148.6z"/>
			<path class="st3" d="M69.9,153.4c0,0.1,0,0.2,0,0.3c0,2.2,1.4,4,3.3,4.8c0.1-0.4,0.2-0.7,0.2-1.1
				C73.3,155.3,71.8,153.7,69.9,153.4z"/>
			<path class="st2" d="M91.6,149.3c1.5,0,2.7,1.2,2.7,2.7c0,1.5-1.2,2.7-2.7,2.7c-1.5,0-2.7-1.2-2.7-2.7
				C89,150.5,90.2,149.3,91.6,149.3"/>
			<path class="st2" d="M94.3,155.9c0.9,0,1.7,0.8,1.7,1.7c0,0.9-0.8,1.7-1.7,1.7c-0.9,0-1.7-0.8-1.7-1.7
				C92.6,156.7,93.4,155.9,94.3,155.9"/>
			<path class="st2" d="M90.4,159.1c1.1,0,1.9,0.9,1.9,1.9c0,1.1-0.9,1.9-1.9,1.9c-1.1,0-1.9-0.9-1.9-1.9
				C88.5,160,89.4,159.1,90.4,159.1"/>
			<path class="st3" d="M77.7,81.1c0,3.7,2.5,6.7,5.9,7.6c0.4-1.2,0.7-2.6,0.7-4c0-3.7-1.7-7-4.3-9.1C78.6,77,77.7,79,77.7,81.1z"/>
			<path class="st3" d="M107,79.5c-1.6,0-3.2,0.5-4.5,1.2c1.7,1.8,4,2.9,6.7,2.9c0.7,0,1.4-0.1,2.1-0.3c0-0.2,0-0.3,0-0.5
				c0-0.7,0.1-1.5,0.2-2.1C110.2,79.9,108.7,79.5,107,79.5z"/>
			<path class="st4" d="M115.9,87.2c0-0.2-0.1-0.5-0.1-0.7c0-0.1,0-0.1-0.1-0.2c-0.1-0.3-0.1-0.5-0.2-0.7c0,0,0-0.1,0-0.1
				c-0.1-0.3-0.2-0.6-0.4-0.8c-0.7-0.1-1.4-0.2-2.1-0.2c-0.5,0-1,0-1.5,0.1c0.4,2.8,1.9,5.2,4,6.9c0.3-0.9,0.5-1.9,0.5-2.9
				c0-0.3,0-0.6-0.1-1C115.9,87.4,115.9,87.3,115.9,87.2z"/>
			<path class="st3" d="M122.1,93.6c0.5,0,1,0,1.5-0.1c-0.7-4.5-4.1-8.1-8.5-9c0.6,1.2,0.9,2.5,0.9,3.9c0,1-0.2,2-0.5,2.9
				C117.3,92.8,119.6,93.6,122.1,93.6z"/>
			<path class="st2" d="M92.8,71.7c-1.4,0.5-2.6,1.6-3,3c1.9,1.3,3.2,3.5,3.4,5.9c0.3,0.1,0.7,0.1,1,0.1c2.6,0,4.6-2.1,4.6-4.6
				c0-0.2,0-0.4,0-0.6C96.3,75.2,94.1,73.7,92.8,71.7z"/>
			<path class="st3" d="M92.8,71.7c1.3,2.1,3.5,3.5,6,3.8c-0.3-2.3-2.2-4-4.6-4C93.8,71.4,93.3,71.5,92.8,71.7z"/>
			<path class="st3" d="M89.8,74.7c-0.1,0.4-0.2,0.9-0.2,1.4c0,2.2,1.6,4.1,3.6,4.5C93.1,78.1,91.8,76,89.8,74.7z"/>
			<path class="st2" d="M152,67.4c2.4,0,4.3,1.9,4.3,4.3c0,2.4-1.9,4.3-4.3,4.3c-2.4,0-4.3-1.9-4.3-4.3
				C147.6,69.3,149.6,67.4,152,67.4"/>
			<path class="st3" d="M138.4,75.2c0.4,0.1,0.9,0.1,1.3,0.1c2.3,0,4.3-1.1,5.6-2.8c-0.7-0.4-1.5-0.6-2.3-0.6
				C141,72,139.2,73.3,138.4,75.2z"/>
			<path class="st3" d="M144.3,81.8c2.2-0.5,3.8-2.5,3.8-4.8C146.1,77.7,144.6,79.6,144.3,81.8z"/>
			<path class="st3" d="M146.2,86.8c1,0.9,2.4,1.5,3.8,1.5c1.7,0,3.2-0.7,4.3-1.9c-1.1-0.3-2.2-0.5-3.4-0.5
				C149.3,85.8,147.7,86.2,146.2,86.8z"/>
			<path class="st2" d="M132.7,85.1c0.9-0.2,1.8-0.3,2.8-0.3c2,0,3.9,0.4,5.6,1.2c-0.1-3.8-3.3-6.9-7.1-6.9c-0.6,0-1.1,0.1-1.7,0.2
				c0.4,1.1,0.6,2.3,0.6,3.5C132.9,83.6,132.8,84.4,132.7,85.1z"/>
			<path class="st3" d="M132.7,85.1c-0.5,2.4-1.9,4.6-3.8,6.1c1.3,1.3,3.1,2.1,5.1,2.1c3.9,0,7.1-3.2,7.1-7.1c0-0.1,0-0.2,0-0.3
				c-1.7-0.7-3.6-1.2-5.6-1.2C134.5,84.8,133.6,84.9,132.7,85.1z"/>
			<path class="st3" d="M60.1,96.6c-4.3,0-8,2.4-9.9,6c0.9,0.3,1.8,0.5,2.8,0.5c4,0,7.3-2.7,8.1-6.4C60.8,96.6,60.4,96.6,60.1,96.6z
				"/>
			<path class="st2" d="M38.2,94c2.1,0,3.8,1.7,3.8,3.8c0,2.1-1.7,3.8-3.8,3.8c-2.1,0-3.8-1.7-3.8-3.8C34.4,95.7,36.1,94,38.2,94"/>
			<path class="st2" d="M40.3,118c1.4,0,2.6,0.6,3.5,1.5c0.3-0.3,0.5-0.7,0.7-1.1c-2-1.1-3.4-3.2-3.4-5.7c0-0.1,0-0.2,0-0.3
				c-0.2,0-0.4,0-0.6,0c-2.4,0-4.4,1.9-4.4,4.4c0,1,0.3,1.9,0.9,2.6C37.9,118.5,39,118,40.3,118z"/>
			<path class="st3" d="M40.3,118c-1.3,0-2.4,0.5-3.3,1.3c0.8,1,2,1.7,3.5,1.7c1.3,0,2.5-0.6,3.3-1.5C42.9,118.6,41.6,118,40.3,118z
				"/>
			<path class="st3" d="M44.8,116.7c0-2.2-1.6-4-3.8-4.3c0,0.1,0,0.2,0,0.3c0,2.5,1.4,4.6,3.4,5.7C44.7,117.9,44.8,117.3,44.8,116.7
				z"/>
			<path class="st2" d="M101.4,137.4c-1.4,2.5-3.9,4.4-6.8,4.8c0.6,1.7,2.2,2.9,4.1,2.9c2.4,0,4.4-1.9,4.4-4.4
				C103,139.4,102.4,138.2,101.4,137.4z"/>
			<path class="st3" d="M101.4,137.4c-0.7-0.6-1.7-1-2.7-1c-2.4,0-4.4,1.9-4.4,4.4c0,0.5,0.1,1,0.3,1.5
				C97.5,141.8,100,139.9,101.4,137.4z"/>
			<path class="st3" d="M111.7,121.7c-0.2,0-0.5-0.1-0.7-0.1c-2.9,0-5.2,2.3-5.2,5.2c0,0.8,0.2,1.5,0.5,2.2
				C109.1,127.7,111.2,125,111.7,121.7z"/>
			<path class="st3" d="M113.6,122.3c-0.3,0.8-0.5,1.6-0.5,2.5c0,2,0.9,3.7,2.3,4.9c0.5-0.8,0.8-1.8,0.8-2.8
				C116.2,124.9,115.1,123.2,113.6,122.3z"/>
			<g>
				<path class="st3" d="M128.3,122c-1.1,0-2.1,0.2-3.1,0.6c0.3,0.7,0.4,1.4,0.4,2.2c0,0.4,0,0.8-0.1,1.2c0.8,0.2,1.7,0.3,2.6,0.3
					c2.2,0,4.2-0.7,5.9-1.8C132.6,122.9,130.6,122,128.3,122z"/>
				<path class="st3" d="M125.2,122.6"/>
			</g>
			<path class="st4" d="M125.6,124.8c0-0.8-0.1-1.5-0.4-2.2l0,0c-0.5,0.2-1,0.5-1.5,0.8c0,0,0,0,0,0c-0.2,0.2-0.4,0.3-0.6,0.5
				c0,0-0.1,0-0.1,0.1c-0.2,0.2-0.4,0.4-0.6,0.6c0.9,0.6,2,1.1,3.1,1.3C125.6,125.6,125.6,125.2,125.6,124.8z"/>
			<path class="st3" d="M119.3,118.5c-0.5,0-0.9,0.1-1.3,0.1c0.7,2.5,2.3,4.6,4.4,6c0.8-0.9,1.7-1.6,2.8-2
				C124.3,120.2,122,118.5,119.3,118.5z"/>
			<path class="st2" d="M128.3,137.5c-3.3,0-6.2-2.1-7.3-5.1c-1.6,0.9-2.7,2.6-2.7,4.6c0,2.9,2.3,5.2,5.2,5.2c2.7,0,4.9-2.1,5.2-4.7
				C128.5,137.5,128.4,137.5,128.3,137.5z"/>
			<path class="st3" d="M123.5,131.8c-0.9,0-1.7,0.2-2.5,0.6c1.1,3,3.9,5.1,7.3,5.1c0.1,0,0.2,0,0.3,0c0-0.2,0-0.3,0-0.5
				C128.7,134.1,126.3,131.8,123.5,131.8z"/>
			<path class="st2" d="M86.3,149.6c-0.9,0.4-2,0.6-3.1,0.6c-1.2,0-2.3-0.3-3.3-0.7c-0.3,0.3-0.6,0.7-0.8,1.1c0.6,0.8,1,1.9,1,3
				c0,0.6-0.1,1.2-0.3,1.7c0.8,0.9,2,1.5,3.2,1.5c2.4,0,4.4-1.9,4.4-4.4C87.4,151.4,87,150.4,86.3,149.6z"/>
			<path class="st3" d="M79.1,150.7c-0.3,0.6-0.4,1.2-0.4,1.9c0,1.1,0.4,2.1,1.1,2.9c0.2-0.5,0.3-1.1,0.3-1.7
				C80.1,152.6,79.8,151.5,79.1,150.7z"/>
			<path class="st3" d="M79.9,149.5c1,0.5,2.1,0.7,3.3,0.7c1.1,0,2.1-0.2,3.1-0.6c-0.8-0.9-1.9-1.4-3.2-1.4
				C81.8,148.2,80.7,148.7,79.9,149.5z"/>
			<path class="st2" d="M40.3,127.7c-1.8,0-3.3-1-4.2-2.4c-2,0.2-3.6,2-3.6,4.1c0,2.3,1.8,4.1,4.1,4.1c2.3,0,4.1-1.8,4.1-4.1
				C40.7,128.8,40.5,128.2,40.3,127.7C40.3,127.7,40.3,127.7,40.3,127.7z"/>
			<path class="st3" d="M36.1,125.3c0.8,1.4,2.4,2.4,4.2,2.4c0,0,0,0,0,0c-0.6-1.4-2.1-2.4-3.7-2.4
				C36.4,125.3,36.3,125.3,36.1,125.3z"/>
			<path class="st2" d="M41,110.9c0.1,0,0.2,0,0.2,0c0.6-2,2.1-3.6,4-4.3c-0.1-2.3-1.9-4.1-4.2-4.1c-1.9,0-3.6,1.3-4.1,3.1
				c1.1,0.6,1.9,1.9,1.9,3.3c0,0.4-0.1,0.9-0.2,1.3C39.3,110.6,40.2,110.9,41,110.9z"/>
			<path class="st3" d="M41.3,110.9c2.2-0.1,4-1.9,4-4.2c0,0,0-0.1,0-0.1C43.3,107.3,41.8,108.9,41.3,110.9z"/>
			<path class="st3" d="M37,105.6c-0.1,0.3-0.1,0.7-0.1,1.1c0,1.4,0.7,2.7,1.8,3.5c0.1-0.4,0.2-0.8,0.2-1.3
				C38.9,107.5,38.1,106.3,37,105.6z"/>
			<path class="st2" d="M47.8,141.1c0-0.6,0.1-1.2,0.2-1.8c0,0,0,0,0,0c-3.2,0-5.8,2.6-5.8,5.8c0,3.2,2.6,5.8,5.8,5.8
				c1.8,0,3.3-0.8,4.4-2C49.6,147.3,47.8,144.4,47.8,141.1z"/>
			<path class="st3" d="M48,139.3c-0.1,0.6-0.2,1.2-0.2,1.8c0,3.3,1.8,6.2,4.5,7.7c0.9-1,1.4-2.3,1.4-3.7
				C53.7,141.9,51.1,139.3,48,139.3z"/>
			<path class="st2" d="M61.9,148.2c-1.5,1.1-3.3,1.8-5.3,1.8c-1.2,0-2.4-0.3-3.5-0.7c-0.9,1.1-1.4,2.4-1.4,3.9
				c0,3.5,2.8,6.3,6.3,6.3c3.5,0,6.3-2.8,6.3-6.3C64.3,151.1,63.4,149.3,61.9,148.2z"/>
			<path class="st3" d="M61.9,148.2c-1.1-0.8-2.4-1.3-3.8-1.3c-2,0-3.8,0.9-4.9,2.4c1.1,0.5,2.2,0.7,3.5,0.7
				C58.6,149.9,60.4,149.3,61.9,148.2z"/>
			<path class="st2" d="M51,86.6C51,86.5,51,86.5,51,86.6c0-2.4-1.9-4.3-4.3-4.3c-1.1,0-2.1,0.4-2.9,1.1c0.4,0.6,0.7,1.3,0.7,2.1
				c0,1.2-0.6,2.3-1.6,3c0.6,1.1,1.6,1.9,2.8,2.2C46.8,88.6,48.7,87.1,51,86.6z"/>
			<path class="st3" d="M45.6,90.6c0.3,0.1,0.7,0.1,1.1,0.1c2.3,0,4.2-1.9,4.3-4.2C48.7,87.1,46.8,88.6,45.6,90.6z"/>
			<path class="st3" d="M42.4,86.5c0,0.7,0.2,1.4,0.5,1.9c1-0.6,1.6-1.7,1.6-3c0-0.8-0.3-1.5-0.7-2.1C43,84.1,42.4,85.2,42.4,86.5z"
				/>
			<path class="st2" d="M106.4,142.5c1.3,0,2.4,1.1,2.4,2.4c0,1.3-1.1,2.4-2.4,2.4c-1.3,0-2.4-1.1-2.4-2.4
				C103.9,143.6,105,142.5,106.4,142.5"/>
			<path class="st2" d="M114,146.6c1.3,0,2.3,1,2.3,2.3c0,1.3-1,2.3-2.3,2.3c-1.3,0-2.3-1-2.3-2.3
				C111.7,147.6,112.7,146.6,114,146.6"/>
			<path class="st2" d="M124.9,159.4c1.3,0,2.3,1,2.3,2.3c0,1.3-1,2.3-2.3,2.3c-1.3,0-2.3-1-2.3-2.3
				C122.6,160.4,123.7,159.4,124.9,159.4"/>
			<path class="st2" d="M132.9,157.3c-0.7,1.2-2,2.1-3.5,2.1c-0.1,0-0.2,0-0.3,0c-0.4,0.6-0.6,1.3-0.6,2.1c0,2.3,1.9,4.1,4.1,4.1
				c2.3,0,4.1-1.9,4.1-4.1C136.8,159.2,135.1,157.4,132.9,157.3z"/>
			<path class="st3" d="M129.1,159.3c0.1,0,0.2,0,0.3,0c1.5,0,2.8-0.8,3.5-2.1c-0.1,0-0.1,0-0.2,0
				C131.1,157.3,129.8,158.1,129.1,159.3z"/>
			<path class="st2" d="M106.8,148.9c1,0,1.8,0.8,1.8,1.8c0,1-0.8,1.8-1.8,1.8c-1,0-1.8-0.8-1.8-1.8
				C105,149.7,105.8,148.9,106.8,148.9"/>
			<path class="st3" d="M142,154c0.7,2.7,3.1,4.8,6,4.9c-0.1-2.8-2.4-5-5.3-5C142.5,153.9,142.2,153.9,142,154z"/>
			<path class="st3" d="M152.9,147.5c-1,1.4-1.7,3-1.7,4.9c0,1.8,0.6,3.5,1.6,4.8c1.3-1.2,2.2-2.9,2.2-4.9
				C155,150.4,154.2,148.7,152.9,147.5z"/>
			<path class="st3" d="M175.4,117.1c-0.2,1.3-0.5,2.5-0.9,3.7c1,1.2,2.5,1.9,4.2,1.9c0.5,0,0.9-0.1,1.3-0.2
				C179.5,120,177.8,117.9,175.4,117.1z"/>
			<path class="st4" d="M173.1,116.6c0,0.2,0,0.3,0,0.5c0,1.4,0.5,2.7,1.4,3.7c0.4-1.2,0.7-2.4,0.9-3.7
				C174.7,116.8,173.9,116.6,173.1,116.6z"/>
			<path class="st3" d="M175.4,117.1c0.1-0.5,0.1-0.9,0.2-1.4c0,0,0,0,0,0c-0.3,0-0.5,0-0.8-0.1c-0.1,0-0.1,0-0.2,0
				c-0.3,0-0.5-0.1-0.7-0.1c-0.1,0-0.1,0-0.2,0c-0.1,0-0.2,0-0.2-0.1c-0.1,0.4-0.2,0.8-0.3,1.3C173.9,116.6,174.7,116.8,175.4,117.1
				z"/>
			<path class="st2" d="M178.5,128.5c-1.3,1.6-3.3,2.7-5.5,2.7c-0.2,0.6-0.4,1.2-0.4,1.8c0,2.6,2.1,4.7,4.7,4.7
				c2.6,0,4.7-2.1,4.7-4.7C182,130.8,180.5,129,178.5,128.5z"/>
			<path class="st3" d="M178.5,128.5c-0.4-0.1-0.8-0.2-1.2-0.2c-1.9,0-3.6,1.2-4.3,2.9C175.2,131.1,177.2,130.1,178.5,128.5z"/>
			<path class="st2" d="M183.7,87.2c-1.2,0-2.3,0.2-3.3,0.6c-0.1,0.7-0.3,1.3-0.5,1.9c2.3,1.8,3.8,4.5,3.8,7.6
				c0,1.2-0.2,2.3-0.6,3.4c0.2,0.2,0.4,0.5,0.5,0.8c0,0,0,0,0,0c0.2,0.3,0.3,0.5,0.4,0.8c0,0,0,0,0,0c0.1,0.3,0.3,0.6,0.4,0.9
				c0,0,0,0,0,0c0.1,0.3,0.2,0.6,0.3,0.9c0,0,0,0,0,0c4.3-0.5,7.6-4.1,7.6-8.4C192.4,91,188.5,87.2,183.7,87.2z"/>
			<path class="st3" d="M184.7,104.1c-0.3-1.2-0.9-2.4-1.7-3.4c-0.4,1.1-1.1,2.2-1.9,3.1c0.8,0.2,1.6,0.4,2.5,0.4
				C184,104.2,184.4,104.2,184.7,104.1z"/>
			<path class="st3" d="M176.9,79.2c-1.6-1.2-3.5-1.9-5.6-1.9c-2.2,0-4.2,0.8-5.8,2c1.1,2.1,3.2,3.5,5.7,3.5
				C173.7,82.7,175.9,81.3,176.9,79.2z"/>
			<path class="st2" d="M164.8,76.3c0-2.3,1.3-4.4,3.1-5.5c-0.5-2.2-2.5-3.8-4.8-3.8c-2.7,0-4.9,2.2-4.9,4.9c0,2.7,2.2,4.9,4.9,4.9
				c0.6,0,1.1-0.1,1.7-0.3C164.8,76.5,164.8,76.4,164.8,76.3z"/>
			<path class="st3" d="M164.8,76.3c0,0.1,0,0.1,0,0.2c1.9-0.7,3.3-2.5,3.3-4.6c0-0.4,0-0.7-0.1-1.1C166.1,72,164.8,74,164.8,76.3z"
				/>
			<path class="st3" d="M178.5,88.9c0.5,0.3,0.9,0.6,1.4,0.9c0.2-0.6,0.4-1.3,0.5-1.9C179.7,88.1,179.1,88.5,178.5,88.9z"/>
			<path class="st3" d="M179.4,90.7c-0.1,0.2-0.2,0.4-0.3,0.5c0,0.1-0.1,0.1-0.1,0.2c-0.3,0.5-0.7,0.9-1,1.3c0,0,0,0-0.1,0.1
				c-0.2,0.2-0.4,0.4-0.6,0.5c0,0,0,0-0.1,0c-0.7,0.6-1.4,1.1-2.3,1.4c0,0.3-0.1,0.6-0.1,0.8c0,3.8,2.6,7.1,6.2,8.1
				c1.6-1.7,2.5-4,2.5-6.4c0-3.1-1.5-5.8-3.8-7.6c-0.1,0.3-0.2,0.5-0.3,0.8C179.5,90.6,179.5,90.7,179.4,90.7z"/>
			<path class="st4" d="M175.8,97.2c-0.2,0-0.5,0-0.7,0c0.1,0.8,0.4,1.5,0.7,2.2c0,0,0,0.1,0,0.1c0.1,0.1,0.1,0.3,0.2,0.4
				c0,0,0.1,0.1,0.1,0.1c0.1,0.1,0.2,0.2,0.2,0.4c0,0.1,0.1,0.1,0.1,0.2c0.1,0.1,0.2,0.2,0.3,0.3c0,0.1,0.1,0.1,0.1,0.1
				c0.1,0.1,0.2,0.2,0.3,0.3c0,0,0.1,0.1,0.1,0.1c0.2,0.2,0.4,0.4,0.6,0.5c0.1,0.1,0.2,0.1,0.2,0.2c0.1,0.1,0.2,0.1,0.2,0.2
				c0.1,0.1,0.2,0.1,0.3,0.2c0.1,0.1,0.2,0.1,0.2,0.2c0.1,0.1,0.2,0.1,0.3,0.2c0.1,0,0.2,0.1,0.2,0.1c0.1,0.1,0.2,0.1,0.3,0.2
				c0.1,0,0.2,0.1,0.2,0.1c0.1,0.1,0.3,0.1,0.4,0.2c0.1,0,0.1,0.1,0.2,0.1c0.2,0.1,0.4,0.1,0.6,0.2c0.8-0.9,1.5-1.9,1.9-3.1
				C181.4,98.6,178.8,97.2,175.8,97.2z"/>
			<g>
				<path class="st3" d="M178.5,88.9"/>
				<path class="st3" d="M178.5,88.9c-1.4-0.8-3.1-1.2-4.8-1.2c-3.9,0-7.2,2.2-8.9,5.3c1.7,1.6,3.9,2.6,6.5,2.6
					c1.3,0,2.6-0.3,3.7-0.8C175.3,92.4,176.6,90.3,178.5,88.9z"/>
			</g>
			<path class="st4" d="M179.2,89.3c-0.2-0.1-0.5-0.3-0.7-0.4c0,0,0,0,0,0c-1.9,1.4-3.2,3.5-3.5,6c2.2-1,4-2.8,4.9-5.1
				C179.7,89.6,179.5,89.4,179.2,89.3C179.2,89.3,179.2,89.3,179.2,89.3z"/>
			<path class="st3" d="M165.1,146.8c-1.5-1.5-3.5-2.5-5.8-2.5c-2.2,0-4.2,0.9-5.7,2.4c1.6,1.2,3.6,1.9,5.8,1.9
				C161.5,148.7,163.5,148,165.1,146.8z"/>
			<path class="st4" d="M113.7,82.4c-0.6-0.7-1.3-1.3-2.1-1.7c-0.1,0.7-0.2,1.4-0.2,2.1c0,0.2,0,0.3,0,0.5
				C112.2,83.1,112.9,82.8,113.7,82.4z"/>
			<path class="st3" d="M113.7,82.4c2.8-1.6,4.8-4.6,4.8-8.1c0-0.5-0.1-1.1-0.1-1.6c-3.4,1.3-6,4.3-6.7,7.9
				C112.3,81.1,113,81.7,113.7,82.4z"/>
			<path class="st3" d="M103,99.4c0.6-0.7,1-1.5,1.3-2.4c-0.8-0.2-1.5-0.6-2.1-1C102.3,97.2,102.6,98.3,103,99.4z"/>
			<path class="st3" d="M111.5,84.5c-3.5,0.5-6.4,2.6-8,5.6c0.8,1.3,1.3,2.8,1.3,4.4c0,0.9-0.2,1.8-0.4,2.6c0.9,0.3,1.8,0.4,2.7,0.4
				c3.9,0,7.2-2.5,8.5-6C113.4,89.7,111.9,87.2,111.5,84.5z"/>
			<path class="st2" d="M112.3,87.4C112.4,87.4,112.4,87.4,112.3,87.4C112.4,87.4,112.4,87.4,112.3,87.4z"/>
			<path class="st2" d="M112.8,88.3C112.8,88.3,112.8,88.3,112.8,88.3C112.8,88.3,112.8,88.3,112.8,88.3z"/>
			<path class="st2" d="M113.3,89.1C113.4,89.1,113.4,89.2,113.3,89.1C113.4,89.2,113.4,89.1,113.3,89.1z"/>
			<path class="st2" d="M114,89.9c0,0,0.1,0.1,0.1,0.1C114,90,114,89.9,114,89.9z"/>
			<path class="st2" d="M103.5,90c1.6-3,4.5-5.1,8-5.6v0c-0.1-0.4-0.1-0.8-0.1-1.2c-0.7,0.2-1.4,0.3-2.1,0.3c-2.6,0-5-1.1-6.7-2.9
				c-2.1,1.2-3.7,3.3-4.2,5.8C100.4,86.9,102.3,88.2,103.5,90C103.5,90,103.5,90,103.5,90z"/>
			<path class="st2" d="M114.7,90.7C114.7,90.7,114.8,90.7,114.7,90.7C114.8,90.7,114.7,90.7,114.7,90.7z"/>
			<path class="st2" d="M104.5,92.5c0,0.1,0,0.2,0.1,0.3C104.6,92.7,104.5,92.6,104.5,92.5z"/>
			<path class="st2" d="M104.6,93.1c0,0.1,0,0.3,0.1,0.4C104.7,93.3,104.7,93.2,104.6,93.1z"/>
			<path class="st2" d="M111.9,86.4c0,0,0,0.1,0,0.1C112,86.5,112,86.5,111.9,86.4z"/>
			<path class="st2" d="M104.4,91.9c0,0.1,0,0.1,0.1,0.2C104.4,92.1,104.4,92,104.4,91.9z"/>
			<path class="st2" d="M104.7,93.7c0,0.2,0,0.4,0,0.7C104.8,94.2,104.7,93.9,104.7,93.7z"/>
			<path class="st2" d="M111.7,85.4C111.7,85.5,111.7,85.5,111.7,85.4C111.7,85.5,111.7,85.5,111.7,85.4z"/>
			<path class="st4" d="M104.7,93.5c0-0.1,0-0.3-0.1-0.4c0-0.1,0-0.2-0.1-0.3c0-0.1,0-0.2-0.1-0.3c0-0.1-0.1-0.2-0.1-0.3
				c0-0.1,0-0.1-0.1-0.2c-0.2-0.7-0.5-1.3-0.9-1.9c0,0,0,0,0,0c-0.8,1.5-1.3,3.3-1.3,5.1c0,0.3,0,0.5,0,0.8c0.7,0.4,1.4,0.8,2.1,1
				c0.3-0.8,0.4-1.7,0.4-2.6c0-0.2,0-0.4,0-0.7C104.7,93.6,104.7,93.6,104.7,93.5z"/>
			<path class="st3" d="M104.7,93.7c0,0.2,0,0.4,0,0.7c0-0.3,0-0.6-0.1-0.9C104.7,93.6,104.7,93.6,104.7,93.7z"/>
			<path class="st3" d="M103.5,90c0.4,0.6,0.7,1.2,0.9,1.9c0,0.1,0,0.1,0.1,0.2c0,0.1,0.1,0.2,0.1,0.3
				C104.3,91.6,103.9,90.8,103.5,90z"/>
			<path class="st3" d="M104.6,92.8c0,0.1,0,0.2,0.1,0.3c0,0,0,0.1,0,0.1C104.6,93.1,104.6,92.9,104.6,92.8z"/>
			<path class="st3" d="M103.7,96.7c-0.1,0-0.2-0.1-0.3-0.1C103.5,96.7,103.6,96.7,103.7,96.7z"/>
			<path class="st3" d="M103.2,96.5c-0.1-0.1-0.3-0.1-0.4-0.2C102.9,96.4,103,96.4,103.2,96.5z"/>
			<g>
				<path class="st2" d="M97.9,59.8c0-0.4-0.1-0.8-0.1-1.2c-1,0.4-2.1,0.7-3.3,0.7c-4.5,0-8.1-3.6-8.1-8.1c0-0.6,0.1-1.1,0.2-1.6
					c-0.9,0-1.8,0.2-2.7,0.4c1,1.3,1.7,3,1.7,4.8c0,4-3.1,7.4-7,7.8c0.3,1,0.5,2.1,0.5,3.2c0,0.7-0.1,1.4-0.2,2.1
					c2,2.2,4.9,3.6,8.2,3.6c1.9,0,3.6-0.5,5.2-1.3c-0.3-0.8-0.5-1.8-0.5-2.7C91.7,63.7,94.4,60.5,97.9,59.8z"/>
			</g>
			<path class="st4" d="M76.1,62.4c0.5,0.1,1,0.2,1.6,0.2c0.3,0,0.5,0,0.8,0c-0.5-1.5-1.3-2.9-2.3-4.1C76,59.1,76,59.8,76,60.5
				C76,61.2,76,61.8,76.1,62.4z"/>
			<path class="st3" d="M76,60.5c0-0.7,0.1-1.4,0.2-2.1c-1.6-1.8-3.8-3-6.2-3.5c0.1,3.7,2.7,6.7,6.2,7.4C76,61.8,76,61.2,76,60.5z"
				/>
			<path class="st3" d="M102.2,95.9c0-0.3,0-0.5,0-0.8c0-1.9,0.5-3.6,1.3-5.1c-1.2-1.8-3-3.1-5.2-3.5c-0.1,0.6-0.2,1.3-0.2,1.9
				C98.1,91.6,99.7,94.4,102.2,95.9L102.2,95.9z"/>
			<path class="st3" d="M121.3,99c0,0.9,0.1,1.8,0.3,2.7c1.4-1.8,2.2-4.1,2.2-6.5c0-0.6-0.1-1.1-0.1-1.6c-0.4,0.1-0.8,0.1-1.2,0.1
				C121.7,95.3,121.3,97.1,121.3,99z"/>
			<path class="st4" d="M123.3,91.9c-0.3,0.6-0.6,1.2-0.9,1.8c0.4,0,0.8,0,1.2-0.1C123.6,92.9,123.4,92.4,123.3,91.9z"/>
			<path class="st2" d="M144.3,87.9c-1-0.8-2-1.4-3.2-1.9c0,0.1,0,0.2,0,0.3c0,3.9-3.2,7.1-7.1,7.1c-2,0-3.8-0.8-5.1-2.1
				c-1.5,1.2-3.3,2-5.3,2.3c0.1,0.5,0.1,1.1,0.1,1.6c0,2.4-0.8,4.7-2.2,6.5c0.3,1.7,1,3.3,1.8,4.7c1.4-0.7,3-1.1,4.7-1.1
				c2.9,0,5.6,1.2,7.5,3.1c0.8-2.8,2.2-5.4,4-7.6c0,0,0,0,0,0c0,0,0,0,0,0c-0.3-1-0.4-2.1-0.4-3.2C139.2,93.5,141.2,90,144.3,87.9z"
				/>
			<path class="st3" d="M134.9,113.1c0.1-1.6,0.3-3.2,0.7-4.8c-1.9-1.9-4.6-3.1-7.5-3.1c-1.7,0-3.3,0.4-4.7,1.1
				C125.8,110.2,130,112.9,134.9,113.1z"/>
			<path class="st4" d="M139.7,100.7c0.9,3.4,3.4,6.1,6.5,7.5c2.2-2.5,3.5-5.7,3.5-9.3c0-1.6-0.3-3.1-0.7-4.5
				C145.3,95.7,142.1,97.9,139.7,100.7z"/>
			<g>
				<path class="st3" d="M169.8,99.5c-1.7-1.7-3.6-3.1-5.8-4.1c-0.1,0.6-0.2,1.3-0.2,2c0,2.8,1.2,5.2,3.1,7
					C167.3,102.5,168.3,100.8,169.8,99.5z"/>
			</g>
			<g>
				<path class="st4" d="M135.6,108.3c-0.4,1.5-0.7,3.1-0.7,4.8c0.2,0,0.4,0,0.6,0c1,0,1.9-0.1,2.8-0.3
					C137.8,111.1,136.8,109.6,135.6,108.3"/>
			</g>
			<path class="st2" d="M178.7,111.5c1.4,0,2.7,0.5,3.7,1.4c1.6-1.7,2.6-3.9,2.6-6.4c0-0.8-0.1-1.6-0.3-2.3c-0.3,0-0.7,0.1-1.1,0.1
				c-0.9,0-1.7-0.1-2.5-0.4c-1.7,1.8-4,3-6.7,3.2c0.6,1.7,1,3.5,1.1,5.3C176.5,111.8,177.6,111.5,178.7,111.5z"/>
			<path class="st3" d="M182.4,112.9c-1-0.9-2.3-1.4-3.7-1.4c-1.1,0-2.2,0.3-3.1,0.9c0,0.5,0.1,0.9,0.1,1.4c0,0.6,0,1.2-0.1,1.8
				c0.1,0,0.2,0,0.2,0C178.4,115.7,180.7,114.6,182.4,112.9z"/>
			<g>
				<path class="st3" d="M175.6,112.4c0,0.5,0.1,0.9,0.1,1.4C175.7,113.4,175.6,112.9,175.6,112.4z"/>
				<path class="st3" d="M175.6,112.4c-0.1-1.9-0.5-3.7-1.1-5.3c-0.3,0-0.5,0-0.8,0c-2.7,0-5.1-1-6.9-2.7c-0.1,0.7-0.2,1.3-0.2,2
					c0,4.2,2.9,7.8,6.8,8.9C173.8,114.1,174.6,113.1,175.6,112.4z"/>
			</g>
			<path class="st4" d="M169.8,99.5c-1.4,1.3-2.5,3-2.9,4.9l0,0c0.7,0.6,1.4,1.2,2.3,1.6c0,0,0,0,0,0c0.3,0.1,0.5,0.3,0.8,0.4
				c0,0,0.1,0,0.1,0c0.2,0.1,0.5,0.2,0.7,0.3c0.1,0,0.2,0,0.3,0.1c0.2,0.1,0.4,0.1,0.6,0.2c0.2,0,0.3,0,0.5,0.1
				c0.2,0,0.3,0.1,0.5,0.1c0.3,0,0.7,0,1,0c0.3,0,0.5,0,0.8,0C173.5,104.2,171.8,101.6,169.8,99.5z"/>
			<path class="st3" d="M174.5,107.1c2.6-0.2,5-1.4,6.7-3.2c-3.1-0.9-5.4-3.4-6-6.6c-2.1,0.2-3.9,1-5.4,2.2
				C171.9,101.6,173.5,104.2,174.5,107.1z"/>
			<g>
				<path class="st4" d="M175.6,112.4c-1,0.7-1.8,1.7-2.2,2.9c0.7,0.2,1.4,0.3,2.2,0.3c0.1-0.6,0.1-1.2,0.1-1.8
					C175.7,113.4,175.6,112.9,175.6,112.4z"/>
			</g>
			<g>
				<path class="st2" d="M166.6,106.5c0-0.7,0.1-1.4,0.2-2c-1.9-1.8-3.1-4.3-3.1-7c0-0.7,0.1-1.3,0.2-2c-0.5-0.3-1.1-0.5-1.7-0.7
					c0.2,0.9,0.3,1.9,0.3,2.8c0,6.5-5.2,11.7-11.7,11.7c-1.7,0-3.3-0.4-4.8-1c-2,2.3-4.8,4-7.9,4.6c0,0,0,0,0,0
					c0.3,0.9,0.4,1.9,0.4,2.9c0,2.4-0.8,4.5-2.1,6.3c2.6,6,8,10.4,14.5,11.8c1.7-2.8,4.8-4.7,8.3-4.7c2.4,0,4.5,0.9,6.2,2.3
					c0.9-0.6,1.8-1.2,2.7-1.9c-1.7-1.3-2.7-3.4-2.7-5.7c0-4,3.3-7.3,7.3-7.3c0.1,0,0.2,0,0.2,0c0-0.4,0.1-0.9,0.3-1.3
					C169.5,114.3,166.6,110.7,166.6,106.5z"/>
			</g>
			<path class="st3" d="M136.6,122.1c1.3-1.8,2.1-3.9,2.1-6.3c0-1-0.1-2-0.4-2.9c0,0,0,0,0,0c-0.2,0-0.4,0.1-0.7,0.1c0,0,0,0,0,0
				c-0.2,0-0.4,0.1-0.6,0.1c-0.1,0-0.1,0-0.2,0c-0.2,0-0.3,0-0.5,0c-0.2,0-0.5,0-0.7,0c-0.2,0-0.4,0-0.6,0l0,0c0,0.3,0,0.5,0,0.8
				C134.9,116.8,135.5,119.5,136.6,122.1z"/>
			<path class="st3" d="M141.9,125.3c-1.1,0-2.2,0.2-3.2,0.4c2.9,4.1,7.3,7,12.4,8.1c0.4-0.7,0.9-1.3,1.4-1.8
				C150.6,128.1,146.6,125.3,141.9,125.3z"/>
			<path class="st3" d="M151.1,133.8c1.3,0.3,2.7,0.4,4.2,0.4c3.8,0,7.3-1,10.4-2.8c-1.7-1.4-3.9-2.3-6.2-2.3
				C155.9,129.2,152.8,131,151.1,133.8z"/>
			<path class="st4" d="M152.5,132C152.5,132,152.5,132,152.5,132c-0.3,0.3-0.5,0.6-0.8,0.9c0,0,0,0,0,0c-0.2,0.3-0.5,0.6-0.7,0.9
				c0.7,0.1,1.4,0.3,2.2,0.3C153.1,133.4,152.8,132.7,152.5,132z"/>
			<path class="st3" d="M174.2,120.4C174.2,120.4,174.2,120.4,174.2,120.4c-0.1-0.1-0.2-0.3-0.3-0.4c0,0,0-0.1,0-0.1
				c-0.1-0.1-0.1-0.2-0.2-0.3c0,0,0-0.1-0.1-0.1c-0.1-0.1-0.1-0.2-0.1-0.3c0-0.1,0-0.1-0.1-0.2c0-0.1-0.1-0.2-0.1-0.3
				c0-0.1,0-0.1-0.1-0.2c0-0.1,0-0.2-0.1-0.3c0-0.1,0-0.2,0-0.3c0-0.1,0-0.2,0-0.3c0-0.1,0-0.3,0-0.4c0-0.1,0-0.1,0-0.2
				c0,0,0-0.1,0-0.1c0-0.1,0-0.3,0-0.4c-0.1,0-0.2,0-0.2,0c-4,0-7.3,3.3-7.3,7.3c0,2.3,1.1,4.3,2.7,5.7c2.8-2.3,4.9-5.3,6.1-8.8
				C174.4,120.6,174.3,120.5,174.2,120.4z"/>
			<g>
				<polygon class="st2" points="175.6,115.7 175.6,115.7 175.6,115.7 				"/>
				<path class="st2" d="M182.4,112.9c-1,1.1-2.3,1.9-3.8,2.3c0,0,0,0,0,0c-0.3,0.1-0.5,0.1-0.8,0.2c0,0-0.1,0-0.1,0
					c-0.3,0.1-0.5,0.1-0.8,0.1c0,0-0.1,0-0.1,0c-0.3,0-0.6,0-1,0c0,0,0,0,0,0s0,0,0,0c-0.1,0-0.2,0-0.2,0c0,0.5-0.1,0.9-0.2,1.4l0,0
					c2.4,0.9,4.1,2.9,4.6,5.5c2.5-0.6,4.3-2.8,4.3-5.4C184.3,115.4,183.6,113.9,182.4,112.9z"/>
			</g>
			<path class="st2" d="M149.7,138.9c0-1.9,0.5-3.6,1.4-5.1c-5.1-1.1-9.5-4-12.4-8.1c-1.1,0.3-2.1,0.8-3.1,1.4
				c0.3,0.8,0.5,1.7,0.5,2.6c0,3.7-2.6,6.8-6,7.6c0.1,6.4,5.3,11.6,11.8,11.6c0.3,0,0.6,0,0.9,0c1.2-1.9,3.2-3.2,5.6-3.2
				c0.5,0,0.9,0.1,1.4,0.2c0.5-0.5,1-1,1.5-1.6C150.2,142.7,149.7,140.9,149.7,138.9z"/>
			<path class="st3" d="M136.1,129.7c0-0.9-0.2-1.8-0.5-2.6c-3.3,2.1-5.5,5.8-5.5,10c0,0.1,0,0.1,0,0.2
				C133.5,136.5,136.1,133.4,136.1,129.7z"/>
			<g>
				<path class="st2" d="M98,111.6c-1.3-2.3-3.1-4.2-5.2-5.8c-1.7,3.9-5.6,6.6-10.1,6.6c-5.3,0-9.7-3.7-10.8-8.7
					c-0.4,0.2-0.8,0.4-1.2,0.6c0.4,1.1,0.6,2.3,0.6,3.5c0,3.1-1.2,5.9-3.3,7.9c2.6,2.3,4.2,5.7,4.2,9.5c0,4.6-2.4,8.6-6.1,10.9
					c0.3,0.3,0.6,0.6,1,0.9c1.4-1.1,3.2-1.8,5.2-1.8c2.1,0,4,0.8,5.5,2c1.4-1.4,3.3-2.2,5.4-2.2c0.2,0,0.4,0,0.6,0
					c-0.2-0.7-0.2-1.4-0.2-2.1c0-5.2,4.2-9.4,9.4-9.5c-0.3-1-0.5-2-0.5-3.1C92.4,116.5,94.7,113.1,98,111.6z"/>
			</g>
			<path class="st3" d="M67.1,136.9c2.4,2.2,5.3,3.7,8.5,4.5c0-0.2,0.1-0.4,0.1-0.6c0-0.1,0-0.2,0.1-0.2c0-0.1,0.1-0.3,0.1-0.4
				c0-0.1,0.1-0.2,0.1-0.3c0-0.1,0.1-0.2,0.1-0.3c0-0.1,0.1-0.2,0.2-0.3c0-0.1,0.1-0.1,0.1-0.2c0.1-0.1,0.1-0.2,0.2-0.4
				c0-0.1,0.1-0.1,0.1-0.2c0.1-0.1,0.2-0.3,0.3-0.4c0,0,0.1-0.1,0.1-0.1c0.1-0.1,0.2-0.3,0.3-0.4c0,0,0,0,0.1-0.1
				c0.1-0.1,0.2-0.3,0.4-0.4c-1.5-1.3-3.4-2-5.5-2C70.3,135.1,68.5,135.8,67.1,136.9z"/>
			<path class="st3" d="M72.2,125.1c0-3.8-1.6-7.1-4.2-9.5c-1.9,1.9-4.5,3.2-7.4,3.3c-0.1,1-0.2,1.9-0.2,2.9
				c0,5.5,2.2,10.5,5.8,14.1C69.8,133.8,72.2,129.7,72.2,125.1z"/>
			<path class="st4" d="M62.6,112.8c-1,1.9-1.6,4-2,6.2c2.9-0.1,5.5-1.4,7.4-3.3C66.5,114.3,64.6,113.3,62.6,112.8z"/>
			<path class="st3" d="M80.7,142.1c2.5,0,4.9-0.5,7-1.3c-2-1.3-3.4-3.4-4-5.8c-0.2,0-0.4,0-0.6,0c-2.1,0-4,0.8-5.4,2.2
				C79.3,138.4,80.3,140.1,80.7,142.1z"/>
			<path class="st4" d="M80.7,142.1c-0.4-1.9-1.4-3.7-2.9-4.9c-1.1,1.1-1.9,2.6-2.2,4.3c1.6,0.4,3.2,0.6,4.9,0.6
				C80.6,142.1,80.7,142.1,80.7,142.1z"/>
			<path class="st3" d="M92.8,105.8c-3.4-2.6-7.6-4.1-12.2-4.1c-3.1,0-6,0.7-8.6,1.9c1.1,5,5.5,8.7,10.8,8.7
				C87.2,112.3,91.1,109.6,92.8,105.8z"/>
			<path class="st3" d="M92.9,123.4c-5.2,0.1-9.4,4.3-9.4,9.5c0,0.7,0.1,1.4,0.2,2.1c2.9,0.2,5.4,2.1,6.5,4.6c4-2.2,7.2-5.7,9-10
				C96.3,128.7,93.9,126.4,92.9,123.4z"/>
			<path class="st4" d="M83.8,135c0.5,2.4,2,4.4,3.9,5.8c0.9-0.3,1.7-0.7,2.5-1.2C89.2,137,86.7,135.2,83.8,135z"/>
			<g>
				<path class="st2" d="M57.7,128.5c0,1.4-0.3,2.7-0.9,3.8c3.3,0.1,6.1,1.9,7.6,4.6c0.6-0.3,1.2-0.6,1.8-0.9
					c-3.6-3.6-5.8-8.6-5.8-14.1c0-1,0.1-2,0.2-2.9c-0.2,0-0.3,0-0.5,0c-2.7,0-5.2-1-7.2-2.6c-1,1.5-2.7,2.6-4.6,2.8
					c-0.2,0.4-0.5,0.9-0.6,1.4c0.6-0.1,1.3-0.2,1.9-0.2C54.1,120.3,57.7,124,57.7,128.5z"/>
			</g>
			<path class="st3" d="M64.4,136.9c-1.5-2.7-4.3-4.5-7.6-4.6c-0.1,0.2-0.2,0.4-0.3,0.5c0,0.1-0.1,0.1-0.1,0.2
				c-0.1,0.1-0.2,0.2-0.3,0.4c0,0.1-0.1,0.1-0.1,0.2c-0.1,0.1-0.2,0.2-0.3,0.4c0,0-0.1,0.1-0.1,0.1c-0.1,0.2-0.3,0.3-0.4,0.5
				c0,0,0,0,0,0c-0.2,0.1-0.3,0.3-0.5,0.4c0,0-0.1,0.1-0.1,0.1c-0.1,0.1-0.3,0.2-0.4,0.3c0,0-0.1,0.1-0.1,0.1
				c-0.1,0.1-0.3,0.2-0.4,0.3c0,0-0.1,0-0.1,0.1c-0.2,0.1-0.4,0.2-0.6,0.3c0,0,0,0,0,0c1.9,1.2,4.2,1.9,6.7,1.9
				C61.2,137.8,62.9,137.5,64.4,136.9z"/>
			<path class="st3" d="M49.6,120.3c-0.7,0-1.3,0.1-1.9,0.2c-0.6,1.4-0.9,3-0.9,4.6c0,3.7,1.6,7,4.1,9.3c0.2-0.2,0.4-0.3,0.5-0.4
				c0,0,0.1-0.1,0.1-0.1c0.2-0.1,0.3-0.2,0.5-0.3c0,0,0.1,0,0.1,0c0.2-0.1,0.4-0.2,0.6-0.3c0,0,0.1,0,0.1,0c0.2-0.1,0.4-0.2,0.6-0.2
				c0.1,0,0.1,0,0.2-0.1c0.2-0.1,0.4-0.1,0.6-0.2c0,0,0.1,0,0.1,0c0.2-0.1,0.5-0.1,0.7-0.2c0.1,0,0.1,0,0.2,0c0.2,0,0.4-0.1,0.6-0.1
				c0.1,0,0.1,0,0.2,0c0.2,0,0.5,0,0.7,0c0.1,0,0.1,0,0.2,0c0.6-1.1,0.9-2.4,0.9-3.8C57.7,124,54.1,120.3,49.6,120.3z"/>
			<path class="st4" d="M50.8,134.4c0.6,0.6,1.3,1.1,2,1.5c1.7-0.7,3.1-2.1,4-3.7c-0.1,0-0.1,0-0.2,0
				C54.4,132.3,52.4,133.1,50.8,134.4z"/>
			<path class="st3" d="M48.3,119.1c1.9-0.2,3.6-1.3,4.6-2.8c-0.2-0.2-0.4-0.3-0.6-0.5c0,0-0.1-0.1-0.1-0.1
				c-0.2-0.2-0.4-0.4-0.5-0.6C50.3,116.2,49.1,117.6,48.3,119.1z"/>
			<path class="st3" d="M68,115.6c2-2,3.3-4.8,3.3-7.9c0-1.2-0.2-2.4-0.6-3.5c-3.5,2-6.3,4.9-8.1,8.5
				C64.6,113.3,66.5,114.3,68,115.6z"/>
			<path class="st3" d="M148.9,94.5c-0.9-2.6-2.5-4.9-4.6-6.6c-3.1,2.1-5.1,5.6-5.1,9.6c0,1.1,0.2,2.2,0.4,3.2
				C142.1,97.9,145.3,95.7,148.9,94.5z"/>
			<path class="st3" d="M113,84.3c0.7,0,1.4,0.1,2.1,0.2c-0.4-0.8-0.9-1.5-1.4-2.1c-0.7,0.4-1.5,0.7-2.3,0.9c0,0.4,0.1,0.8,0.1,1.1
				C112,84.4,112.5,84.3,113,84.3z"/>
		</g>
	</g>
</g>
</svg>
